<svg version="1.1" xmlns="http://www.w3.org/2000/svg" width="768" height="768" viewBox="0 0 768 768">
  <path fill="#fcfcfc" d="M590.283 397.587c1.007 4.523 2.512 9.047 3.014 13.571 0-4.523-0.503-9.047-1.509-13.571l0.503 4.021c-3.014-5.528-1.509-17.087-4.523-28.146l3.516 7.035c-1.007-7.035-2.513-13.57-4.523-20.606v3.014c-10.555-35.686-30.66-60.313-65.841-71.37 1.007 1.007 7.035 3.014 12.563 6.031s10.054 6.031 9.047 6.031c-13.571-8.040-22.114-11.058-30.156-13.068-9.551-3.519-20.102-5.027-30.658-5.531-3.014 1.007 18.094 4.021-5.026 4.523 1.509-2.011-18.597-2.011-3.014-5.026-19.602 3.014-15.579-0.503-29.653 4.021 1.952-0.629 4.2-0.994 6.526-1.007h0.004c5.027 0.503-8.040 2.513-13.068 3.516-9.55 0-18.597 0-28.146 2.011-10.052 3.014-19.602 5.528-28.646 8.544-1.509 0 0-1.007 0-1.007-27.142 8.042-56.291 15.079-75.388 20.606-1.509 1.007-5.531 2.513-3.519 2.513 1.007 0 3.519-0.503 8.544-1.509-11.056 4.523-26.639 6.031-38.197 7.035 3.014-1.007 6.031-2.512 9.047-4.021-12.061 2.512-25.129 4.021-37.693 4.021s-36.691-2.011-44.231-13.57v3.014c-0.503-0.503-0.503-0.503-0.503-1.007l-2.513 1.509c2.513-1.007 6.031 5.026 15.079 9.047 5.531 2.513 12.061 4.021 14.576 4.021 2.011 0 2.513-0.503 1.509-1.509 9.55 0.503 14.074 2.512 12.563 3.516 9.55-0.503 19.602-1.509 29.653-3.516 3.519 0.503-2.512 3.516-6.031 4.021-7.035 1.007-16.585 2.011-25.129 2.011-6.535 0-12.563-0.503-17.087-2.512-4.523 0-2.512 1.007-2.011 1.509 0.503 0 0.503 0.503-1.007 0.503-1.007 0-3.516-0.503-8.544-1.509-8.040-3.516-14.074-8.544-17.591-15.079-3.014-6.031-4.021-14.575-2.513-23.118 3.014-17.087 10.555-33.169 18.095-43.727-2.513 3.014-4.523 6.031-5.026 6.031 0 0 0-1.007 1.007-3.516 3.014-5.026 6.535-9.55 10.555-14.576 7.538-12.563 9.55-20.606 17.591-28.146 1.007-4.021-17.591 20.606-23.121 28.646 3.516-15.579 20.102-24.626 26.639-39.707 1.007-3.516-5.026 4.523-10.555 12.061-4.021 5.026-7.538 10.052-8.544 10.052-0.503 0 0-0.503 0.503-2.512 4.021-5.528 8.544-11.058 13.068-16.585-12.061 9.047-19.602 29.653-25.632 31.664 2.513-7.035 16.585-25.13 18.597-26.137 0.503-1.007 1.007-1.509 0.503-1.509s-4.021 3.014-5.026 3.014c-0.503 0 0-0.503 1.509-3.516 8.544-8.544 10.052-14.576 18.094-21.109l-2.011 5.528c5.528-7.035 21.109-23.118 28.146-30.658 2.011 1.509-14.074 20.605-20.605 28.146 6.535-5.026 17.086-17.591 23.118-24.121l-11.558 11.058c16.082-17.591 9.047-16.585 29.653-35.181 6.031-6.031 8.544-8.040 9.55-8.040s0 2.512 0.503 2.512 1.007-0.503 2.011-1.007l10.052-9.55c-0.503 0-4.523 3.014-6.031 2.011 15.079-13.57 19.602-15.579 40.208-32.168-11.558 10.052-13.571 14.074-25.632 22.618l5.026-1.007c14.576-14.074 25.632-25.632 44.731-40.711h2.513c1.509-1.509 42.721-31.162 87.955-48.25 22.114-8.544 44.731-14.074 68.353-14.074 13.571 0 21.613 3.014 19.099 1.007 0 0-7.538-2.512-19.099-2.512-20.102 0-38.197 3.516-57.297 9.047l1.509-1.509c16.585-6.032 34.679-9.55 52.27-9.55 12.062 0 31.663 2.011 40.711 12.563 2.011 0.503 5.026 4.021 7.035 8.042s2.513 7.538 4.021 7.035c2.513 10.055 1.007 18.597-0.503 26.134-3.519 18.095-14.074 35.686-24.125 50.762 7.538-10.052 14.074-20.102 20.102-32.168s11.056-25.632 9.047-43.726c-1.509-29.653-34.679-39.203-59.305-39.203-8.544 0-17.087 1.007-26.134 2.513-5.026 1.509-9.55 3.014-7.035 3.014 1.007 0 2.011 0 4.523-0.503 6.032-1.509 11.056-2.512 14.074-2.512 4.021 0 4.523 1.509-2.011 3.014-4.021 1.007-6.032 1.007-7.035 1.007-3.014 0-6.031 1.007-10.054 2.011l9.047-1.509c-18.597 4.021-27.142 8.040-36.692 13.57-34.176 10.555-66.342 30.156-95.494 51.265s-55.285 43.223-79.411 62.323l-13.068 16.585c-1.509 0-4.021 0.503-10.555 8.544 2.512-3.014 7.035-7.538 6.535-6.031-11.056 11.058-21.611 22.618-32.165 34.679l4.523-2.513c-11.056 10.052-25.632 33.674-36.188 45.739 0.503 0.503-4.523 9.55-3.014 9.55-6.535 9.55-12.061 20.605-16.585 31.664-4.523 11.558-7.035 24.125-5.528 36.691 3.516 28.646 23.623 38.197 49.255 43.223-3.519-1.007 0.503-1.509 2.011-1.509 15.579 1.007 3.516 1.007 7.035 2.512 2.011-2.011 16.082-1.509 35.686-4.523 20.102-3.014 45.739-8.544 71.872-15.079s52.27-13.068 73.881-17.591c21.613-4.523 38.197-6.535 44.228-8.040-4.021 0-7.538 0.503-6.535 0 9.551-1.509 19.099-2.513 28.645-2.513 52.27 0 79.915 26.639 89.966 75.893 3.519 17.089 4.523 35.181 4.021 51.767 1.007-18.094 4.021-4.523 4.523-15.579-0.503-2.011-0.503-3.014-0.503-3.014-0.503 0-1.007 7.538-1.007 7.538-0.503 0-0.503-1.007-1.007-4.523 2.011-10.555 1.007-14.074 0-18.094-1.007-3.516-2.011-7.538-2.513-18.597 1.509 4.021 2.513 7.538 3.516 11.558-4.523-29.149-17.087-62.825-44.231-78.407l4.021-0.503c-10.555-5.528-26.134-10.555-28.146-13.068 18.597 4.523 28.648 10.055 37.191 15.079 7.538 5.528 14.576 11.056 19.099 22.115l-1.007-1.007c-0.503 0 0 1.007 0.503 2.513 9.551 9.55 16.585 28.648 17.090 42.219l-2.513-6.535c1.407 6.209 2.483 13.604 2.993 21.154l0.023 0.457 1.509 21.613c1.007 15.079-2.011 29.653-5.026 42.219 1.007-2.011 1.509-2.513 1.509-2.513 1.007 0-0.503 7.035-2.513 15.579l-3.014 6.535c-0.503 0 1.509-6.535 1.007-6.535s-0.503 0-1.007 1.007c-5.026 10.054-15.579 40.208-22.115 51.263 1.007-2.513-9.55 15.079-10.555 15.079-0.503 0 0.503-2.011 3.014-7.035-14.575 23.623-23.118 42.216-36.692 55.285-1.007 3.014-3.516 9.047-8.040 15.579l-1.509-2.011-4.523 8.544c-12.062 14.074-21.611 18.095-32.67 33.169 2.513-2.513 7.035-8.040 8.544-7.538 0.503 2.513-21.109 26.134-18.094 26.134 0.503 0 0.503-0.503 1.007-0.503l9.55-12.563c-0.503 1.007 0 1.007 0 1.007 2.011 0 11.056-10.555 9.55-7.035 9.068-9.988 17.959-20.794 26.322-32.024l0.82-1.148 2.011 0.503-7.035 7.035c-1.007 2.011-1.007 3.014-0.503 3.014 1.509 0 14.576-20.606 22.115-27.644l-1.007-1.007c22.618-29.653 10.054-11.558 28.146-36.188l3.519-9.047c0.503-1.509-13.068 24.626-14.576 22.618 9.551-17.089 23.623-40.207 31.162-60.313l-3.516 14.575c2.513-7.538 12.062-17.087 19.099-35.184-3.014 5.528-5.528 11.056-8.544 16.082 1.509-7.538 6.535-19.099 11.056-32.67 4.523-13.068 8.544-28.648 8.040-41.714 0 7.035-1.509 14.074-3.014 15.079 0.503-6.032 2.011-22.618 2.011-31.663 1.007 1.007 2.011 5.026 2.513 10.555 0.503 6.031 0 13.571-1.007 20.102-2.011 14.074-5.528 25.632-3.014 23.118 4.523-13.571 6.032-27.142 5.027-40.208-1.007-12.061-2.011-21.613-2.513-30.156zM563.644 27.169c-0.565-1.571-1.422-2.91-2.517-4.023l0.004 0.002h-0.503c2.011 2.011 2.513 3.516 3.014 4.021zM419.903 41.24c0.503 0 0.503-0.503 1.007-0.503-0.503 0-0.503 0.503-1.007 0.503zM369.137 76.924l-1.509-0.503c-0.503 1.007-0.503 1.007 1.509 0.503zM297.769 136.231c-5.528 4.523-15.079 11.558-15.579 15.079 3.516-3.014 9.55-10.054 15.579-15.079zM290.23 155.833c-0.503 0-0.503 0-1.509 1.007l0.503 1.007c1.007-1.007 1.509-2.011 1.007-2.011zM286.712 160.858l2.512-3.014c-1.005 0.503-1.509 2.011-2.512 3.014zM266.611 180.462l11.058-11.558c1.007 1.509 1.509 2.512-5.531 9.047 2.512-1.007 7.538-8.040 11.058-11.558l-2.513 2.011c1.007-1.509 3.516-5.026 6.031-7.538-10.555 9.551-20.605 14.576-20.102 19.602zM262.085 184.483l-9.047 13.571c3.516-4.523 13.57-15.579 9.047-13.571zM246.505 199.057c-2.513 2.513-4.523 5.026-5.528 7.035l2.011-2.011c0.503 0-6.031 8.040-7.035 11.056 12.062-13.571 4.021-7.538 10.555-16.082zM214.842 240.272l-0.503 0.503c-1.007 1.007-1.007 2.513-2.011 3.516zM197.251 290.531c3.014-10.555 7.538-20.102 10.555-27.642-2.513 4.021-3.516 5.528-4.021 5.528s0.503-3.014 2.011-6.535c2.513-6.031 8.544-15.079 10.052-18.094-10.555 14.576-16.082 30.156-20.605 47.244v-0.503c-1.509 10.052-1.007 19.099 2.011 24.626-3.014-6.031-2.513-15.579 0-24.626zM212.328 244.292l-0.503 1.007c0-0.503 0.503-0.503 0.503-1.007zM444.029 288.522h-0.503zM532.485 295.054c-3.519-2.011-6.535-3.014-9.551-4.523zM532.485 295.054l7.035 4.021c-2.513-1.509-4.523-3.014-7.035-4.021zM198.757 317.672c-0.503-0.503-1.007-1.509-1.509-2.513 0.503 1.007 0.503 2.011 1.509 2.513zM233.94 597.118c-2.011 2.513-2.512 3.516-3.014 3.516s2.513-5.528 2.011-5.528c-0.503 0-1.007 1.007-2.513 2.513 5.531-10.555 17.591-21.613 29.653-38.197l-1.509 1.509c-0.503 0 0-2.011 1.509-4.523 10.052-10.555 26.134-28.648 36.692-39.203-0.541-0.039-0.968-0.466-1.007-1.004v-0.001c10.052-8.544 12.566-11.056 24.626-19.602 43.223-36.188 92.981-77.4 143.24-103.032 2.011-1.007 3.516-1.509 4.021-1.509 2.512 0-14.576 11.056-9.551 9.047 41.714-32.165 51.767-44.228 42.721-47.244l-6.031 4.523c-0.039-0.538-0.466-0.968-1.004-1.007h-0.004c-1.509 0-3.516 1.007-7.538 3.516-5.026 3.014-5.531 4.523-4.523 4.523 0.503 0 3.014-1.007 4.021-1.007 0.503 0 0.503 0.503-1.007 2.011-18.597 4.021-45.739 32.67-65.339 38.197-64.332 44.732-136.709 107.555-179.43 164.851l2.513-2.512c-1.509 2.512-15.579 21.61-16.585 21.61l0.503 3.516c-3.519 6.032-5.026 8.040-6.031 8.040-1.509 0-0.503-6.535-2.011-6.535-1.007 0-3.014 2.011-7.035 9.55 2.513-3.516 4.021-5.026 5.026-5.026 2.011 0-1.007 8.544-5.026 15.079 1.509-2.011 5.026 0 7.538-5.027 3.516-4.523 7.035-8.544 10.555-12.563-1.509-1.509 1.509-7.538 6.031-14.074s10.555-13.068 13.57-16.585c0 0.503 0 1.007-0.503 1.509-1.509 2.011-1.509 2.011 0 0.503-2.011 5.528-5.528 12.062-12.563 19.602-6.031 10.052-12.061 19.602-17.591 29.653 4.021-4.021 8.544-7.035 15.579-19.099zM574.704 451.867c3.014-6.032 5.026-10.555 4.523-20.102l-2.513 10.052c-0.503 0 0-4.021-0.503-4.021s-1.007 1.007-2.512 5.026c-1.509 10.052-4.021 19.602-6.535 28.648 4.523-9.047 5.528-15.079 7.538-19.602zM575.204 433.268c-0.503 2.512-1.007 5.528-1.509 9.55zM573.7 463.426c-1.007 2.512-2.011 5.528-2.512 8.040 0-1.007 0.503-2.011 1.007-3.014zM567.164 471.468c-1.007 2.011-1.509 4.021-2.513 6.535 1.007-2.011 1.509-4.523 2.513-6.535zM541.028 532.784c13.571-16.585 22.618-40.208 30.156-61.318-1.509 3.014-3.014 6.031-4.021 9.55-1.007-3.014-7.538 10.054-9.551 10.054 3.519 1.509-9.55 23.623-16.082 35.686zM294.249 523.737c1.509 0 3.519-2.513 9.047-8.040-2.011 1.007-5.026 4.021-9.047 8.040zM560.63 524.239v1.007zM560.63 525.246c-0.503 0.503-0.503 0.503-0.503 1.007zM519.92 570.982c8.544-13.571 17.089-27.142 24.626-41.714-3.519 5.528-7.538 11.058-11.558 16.585-4.021 8.544-8.544 17.090-13.068 25.13zM492.278 599.632l8.544-12.563c-2.512 0.503-17.591 26.639-20.606 23.121-3.014 5.027-3.014 6.535-2.513 6.535 1.007 0 4.523-3.014 5.531-3.014 0.503 0-0.503 2.011-5.531 9.047 15.579-20.102 27.642-34.176 40.711-51.767-4.523 5.026-5.531 7.035-11.558 13.571 9.047-12.062 19.602-29.653 28.648-45.235-6.031 6.032-11.058 15.579-18.094 25.13 1.509-1.509 2.512-3.014 3.014-3.014s0 1.007-1.007 3.516c-11.558 13.068-15.579 23.623-27.142 34.679zM262.085 557.412l-1.007 1.007c0.541-0.039 0.968-0.466 1.007-1.003v-0.001zM261.080 558.418l-1.007 1.007c0.541-0.039 0.968-0.466 1.007-1.003v-0.001zM517.406 564.451c-1.007 1.509-3.014 3.516-4.021 5.528 1.509-2.011 3.014-3.516 4.021-5.528zM234.946 593.6c-0.541 0.039-0.968 0.466-1.007 1.004v0.001zM218.36 616.216c-3.014 3.014-6.031 6.032-9.55 13.068 0 0.503 0 1.509 0.503 1.007-4.021 7.538-8.544 17.591-11.056 28.146 0.503-2.011 1.509-4.021 2.011-5.528 4.523-13.571 11.558-25.13 18.094-36.692zM208.309 620.24c1.007-2.512 1.007-4.021 0.503-4.021-1.509 0-5.531 7.035-8.544 15.079 4.021-9.551 8.042-13.571 8.042-11.058zM467.651 628.279c-2.513 0-30.66 31.663-31.663 36.188 13.571-10.555 13.571-15.079 18.094-21.109 3.014-2.513 10.555-10.555 12.061-11.058 0.503-1.509 2.513-4.021 1.509-4.021zM199.764 733.825c-0.503-0.503-1.007-1.509-1.509-2.512v-1.007c4.021 5.026 8.042 11.558 12.563 17.087 4.523 5.027 9.047 8.544 9.55 7.035-5.026-3.516-12.061-9.55-16.585-17.087-3.014-3.516-7.035-11.058-7.035-16.082-1.007-2.011 0 1.509-1.007 1.509 0 0-0.503-0.503-2.011-3.516v-1.007c-1.509-6.535-2.011-9.551-1.509-12.062 0-2.512 0.503-4.021 1.007-8.544l-2.011-8.040c2.512-1.007 3.014-12.061 5.528-24.626l1.509-6.535c-3.516 10.052-6.535 21.109-7.538 33.169-0.503 8.544 0.503 17.591 2.513 26.134-5.528-13.068-5.026-27.642-2.512-41.212 2.512-14.074 7.538-27.142 13.068-41.216 1.007-3.014 1.007-4.021 1.007-4.021-1.007 0-7.538 17.090-8.544 18.094-1.007-2.513 0.503-6.032 2.512-9.551s4.021-7.035 4.021-10.555c-0.503-1.509-4.523 5.027-8.544 14.074s-7.035 20.102-9.047 26.639c-1.509 11.558 0 11.558 1.007 15.079-2.011 3.014-2.011 15.079-3.516 18.095 3.014 15.079 8.544 36.692 21.109 47.244 0.503 1.007 2.512 3.014 4.021 4.523 2.513 2.513 6.031 4.021 6.031 3.516-3.014-2.513-6.535-4.021-9.047-7.035 2.513 2.011 5.026 4.021 8.040 5.528 0.503 1.007 1.007 1.007 1.007 1.509 0.503 0.503 1.007 0.503 1.509 1.007l-1.007-1.007c5.528 2.513 13.068 5.528 21.109 7.035 5.026 1.509 11.058 2.513 16.585 2.513 2.011 0 4.523 0 6.535-0.503-3.516 0-7.035 0-10.555-0.503-22.115 0-40.208-13.571-48.25-33.172zM466.142 633.808c1.007-1.007 0.503-1.509 0-1.509-0.503 1.509-1.007 2.513 0 1.509zM462.625 644.365l-0.503 0.503s0.503 0 0.503-0.503zM462.123 645.367v-0.503c-1.007 1.509-1.007 1.509 0 0.503zM456.592 652.406c-11.056 14.575-36.689 34.176-30.66 34.679 6.535-6.031 11.558-11.058 13.068-13.068l-0.503 1.007s11.056-12.563 18.094-22.618zM434.981 660.949c-7.035 4.523-8.040 8.040-14.576 13.068l-7.035 10.052c1.509-1.509 3.516-3.516 5.026-5.528l2.011 1.007c0.503-1.509 3.014-7.538 14.575-18.597zM426.939 681.053c-3.516 3.014-13.571 14.074-16.585 13.571-4.523 3.516-5.528 4.523-5.026 4.523s4.523-2.513 5.026-2.513l-5.026 4.523c-3.516 4.021 21.613-18.095 21.613-20.102zM425.431 687.589c-8.544 6.032-13.068 11.056-22.618 19.602 7.035-6.032 15.579-13.068 22.618-19.602zM381.705 706.684c7.035-4.523 13.57-10.052 20.102-14.575l-5.027 3.014zM375.676 723.773l4.523-6.032c-9.047 7.035-15.579 11.058-21.613 14.074 4.523-1.509 3.014 1.007 17.087-8.040zM351.046 725.785c-5.528 5.528-18.597 9.047-27.642 13.571l-3.014 3.014c9.55-5.528 15.579-7.538 20.102-9.047s7.538-3.014 10.555-7.538zM358.586 731.816c-2.011 1.007-5.026 2.513-11.056 6.032 2.512-1.007 9.047-4.021 11.056-6.032zM345.519 740.36c-3.516 4.523-19.602 10.052-21.611 12.563 1.007 0.503 10.052-3.014 13.068-4.021 1.509-4.523 20.606-10.555 10.555-11.056-4.523 2.513-10.555 6.032-18.094 10.052zM262.589 756.443c2.513 1.007-4.021 3.516 1.509 3.516 1.509 0 4.021 0 7.538-0.503 2.512-1.509 9.047-2.512 7.538-3.516 2.011-0.503 3.519-0.503 4.523-0.503h6.535c12.062-4.523 30.66-11.056 39.203-17.087-4.523 2.512-5.531 3.014-9.047 4.021-9.047 3.516-20.102 7.538-30.156 10.555-9.047 2.513-18.094 3.516-27.644 3.516zM336.974 748.904c-0.503 0.503-0.503 1.007-0.503 1.007 1.509-1.007 1.509-1.007 0.503-1.007zM271.637 764.485c3.014 0 6.031 1.007 9.047 1.007 7.035-3.014 14.074-6.032 20.605-9.551-7.538 4.021-16.585 5.528-24.124 7.035-7.538 0.503-13.068 1.509-14.576 3.516l-9.047-1.007 5.026 2.011h6.031c3.014-0.503 5.531-0.503 8.042-0.503-6.535 0-9.55-1.007-1.007-2.512zM312.847 755.939c-5.528 2.011-9.047 3.014-11.056 4.021 4.021-1.509 7.538-2.513 11.056-4.021zM288.221 766.497c13.57-3.014 12.566-4.021 11.558-4.523-0.503-0.503-0.503-1.007 2.011-2.011-6.031 2.011-12.062 4.021-18.597 5.528zM272.64 766.999c1.509 0 2.513 0 4.021-0.503-1.007 0-2.513 0.503-4.021 0.503z"></path>
</svg>