<?xml version="1.0" standalone="no"?>
<!DOCTYPE svg PUBLIC "-//W3C//DTD SVG 20010904//EN"
 "http://www.w3.org/TR/2001/REC-SVG-20010904/DTD/svg10.dtd">
<svg version="1.0" xmlns="http://www.w3.org/2000/svg"
 width="700.000000pt" height="700.000000pt" viewBox="0 0 700.000000 700.000000"
 preserveAspectRatio="xMidYMid meet">
<metadata>
Created by potrace 1.14, written by Peter Selinger 2001-2017
</metadata>
<g transform="translate(0.000000,700.000000) scale(0.100000,-0.100000)"
fill="#000000" stroke="none">
<path d="M4514 6986 c-86 -16 -136 -41 -64 -31 108 13 155 16 133 6 -13 -6
-46 -13 -75 -17 -63 -8 -231 -65 -308 -104 -30 -15 -95 -42 -145 -60 -339
-124 -642 -318 -1228 -788 -205 -164 -281 -231 -323 -286 -31 -39 -64 -75 -73
-81 -36 -21 -315 -324 -306 -333 3 -3 -8 -19 -24 -36 -63 -67 -280 -369 -297
-414 -10 -26 -28 -63 -40 -83 -12 -19 -41 -72 -63 -118 -211 -419 -114 -740
255 -835 34 -9 77 -13 101 -9 24 3 48 1 55 -5 13 -10 221 6 363 29 154 24 429
85 795 174 372 91 648 150 815 176 44 6 86 17 94 23 9 7 79 11 200 11 162 0
197 -3 271 -23 280 -76 451 -265 536 -592 29 -110 53 -306 55 -435 1 -49 3
-81 5 -70 3 11 14 39 27 63 18 35 20 45 9 62 -6 11 -12 46 -12 77 0 32 -4 74
-9 93 -5 19 -12 55 -15 80 l-5 45 14 -35 c21 -53 18 -26 -10 85 -62 253 -188
461 -338 560 -19 12 -24 21 -17 25 7 4 -31 26 -89 51 -107 47 -125 62 -39 34
80 -27 207 -93 263 -137 57 -46 125 -132 125 -159 0 -10 18 -42 40 -71 54 -71
102 -196 105 -273 2 -33 11 -145 20 -250 18 -205 15 -293 -14 -437 -10 -48
-14 -85 -9 -82 6 4 8 -1 5 -12 -3 -11 -11 -46 -17 -78 -8 -39 -15 -54 -20 -45
-10 15 -19 -5 -100 -206 -26 -66 -60 -146 -74 -178 -35 -81 -106 -188 -119
-180 -6 4 -8 0 -4 -11 4 -9 3 -15 -2 -12 -5 3 -53 -69 -107 -160 -54 -92 -124
-197 -155 -233 -31 -37 -71 -97 -89 -134 -20 -41 -38 -66 -45 -63 -7 2 -24
-16 -38 -42 -16 -28 -80 -98 -161 -175 -75 -71 -136 -134 -136 -140 0 -6 14 2
32 19 l32 29 -29 -40 c-16 -22 -53 -71 -82 -109 -54 -69 -74 -116 -27 -61 55
64 83 91 128 125 26 19 84 79 128 133 45 53 87 97 94 97 13 0 186 220 211 269
7 13 44 63 83 111 38 48 70 92 70 97 0 5 7 18 16 29 8 10 12 13 8 5 -5 -10 -3
-12 5 -7 7 5 10 14 7 22 -3 8 0 13 6 11 13 -2 63 76 72 113 5 17 0 14 -14 -12
-11 -21 -22 -38 -25 -38 -4 0 163 329 172 340 3 3 2 -9 -2 -25 -7 -30 92 120
135 205 23 46 27 69 4 27 -31 -58 -23 -17 22 109 25 71 57 167 70 214 13 47
22 69 19 50 -14 -87 -17 -135 -6 -120 37 53 55 271 39 475 -5 55 -4 82 2 70 8
-19 9 -19 9 2 1 12 -5 48 -13 80 -18 73 -27 185 -15 177 5 -3 9 1 9 8 0 26
-31 144 -45 173 -8 17 -30 67 -49 113 -19 46 -49 108 -68 139 -50 85 -170 207
-262 266 -79 52 -190 102 -205 92 -5 -2 -44 7 -87 20 -100 31 -284 59 -284 44
0 -4 12 -12 28 -17 25 -10 25 -11 -18 -12 -25 -1 -49 -1 -55 0 -5 2 -22 5 -37
8 -29 5 -37 17 -15 25 6 3 -4 4 -23 1 -19 -2 -68 -5 -109 -8 -49 -3 -80 -11
-92 -22 -14 -12 -51 -18 -162 -25 -121 -7 -168 -15 -288 -48 -79 -22 -265 -72
-414 -111 -441 -117 -460 -123 -450 -139 5 -9 -78 -27 -170 -37 -57 -6 -59 -6
-40 10 l20 17 -20 -5 c-136 -33 -425 -40 -538 -13 -75 19 -137 47 -168 78 -16
16 -23 18 -35 9 -11 -10 -6 -18 31 -47 83 -63 149 -87 247 -88 54 -1 92 -6
102 -14 15 -12 92 -8 251 15 l30 4 -31 -14 c-67 -32 -367 -40 -413 -11 -6 3
-18 1 -28 -6 -46 -28 -178 44 -227 124 -63 103 -43 280 54 484 26 56 46 104
43 107 -3 3 18 38 47 78 29 40 75 113 102 163 27 49 63 108 80 130 l31 40 -32
-30 c-18 -16 -62 -69 -98 -117 -36 -49 -67 -88 -70 -88 -12 0 46 84 111 161
82 97 122 157 111 167 -4 4 -16 -5 -27 -21 -11 -15 -23 -25 -28 -22 -4 2 -15
-4 -25 -15 -10 -11 -22 -17 -27 -14 -5 3 -15 0 -23 -6 -28 -23 -15 -1 38 66
78 101 108 133 101 109 -6 -21 -6 -21 159 155 105 112 99 91 -15 -52 -45 -57
-69 -92 -53 -78 50 42 153 154 157 170 8 40 109 167 189 240 49 45 89 77 89
71 0 -23 28 -9 70 35 30 31 38 45 25 41 -27 -9 42 53 147 132 l83 63 -65 -62
c-49 -46 -59 -60 -40 -54 14 3 77 57 140 118 160 155 287 259 305 252 8 -3 15
-1 15 5 0 5 51 43 113 83 382 248 741 406 1052 462 104 18 347 25 398 11 15
-4 27 -3 27 2 0 5 -24 14 -52 20 -51 10 -51 10 -8 6 126 -12 239 -86 298 -198
33 -61 34 -63 29 -167 -7 -156 -56 -290 -182 -497 -14 -24 -24 -43 -22 -43 12
0 133 200 173 284 61 129 77 205 72 341 -4 94 -8 117 -30 160 -49 94 -142 164
-273 205 -89 29 -330 37 -441 16z m206 -97 c-106 -7 -168 -16 -330 -44 -14 -3
-5 2 20 10 73 25 218 43 330 43 l105 -1 -125 -8z m-363 -55 c-3 -3 -12 -4 -19
-1 -8 3 -5 6 6 6 11 1 17 -2 13 -5z m-2273 -1726 c-16 -27 -95 -128 -101 -128
-5 0 21 36 76 107 26 34 38 43 25 21z m-134 -147 c-58 -87 -102 -136 -65 -73
26 43 114 162 120 162 3 0 -21 -40 -55 -89z m3438 -1896 c-1 -69 -3 -88 -8
-60 l-6 40 -6 -35 c-3 -19 -4 -8 -2 24 2 32 4 86 5 120 1 46 3 55 9 36 4 -14
8 -70 8 -125z m-11 -147 c-3 -7 -5 -2 -5 12 0 14 2 19 5 13 2 -7 2 -19 0 -25z
m-447 -1008 c-6 -11 -13 -20 -16 -20 -2 0 0 9 6 20 6 11 13 20 16 20 2 0 0 -9
-6 -20z m-360 -483 c0 -2 -10 -12 -22 -23 l-23 -19 19 23 c18 21 26 27 26 19z"/>
<path d="M2624 5686 c-32 -30 -56 -56 -53 -60 3 -3 32 21 64 54 74 75 68 78
-11 6z"/>
<path d="M2630 5569 c0 -5 5 -7 10 -4 6 3 10 8 10 11 0 2 -4 4 -10 4 -5 0 -10
-5 -10 -11z"/>
<path d="M2535 5474 c-74 -58 -105 -89 -105 -107 0 -6 23 11 50 38 28 27 50
44 50 39 0 -6 -9 -19 -20 -29 -11 -10 -20 -23 -20 -29 1 -13 47 40 90 102 16
23 28 42 27 42 -1 -1 -33 -26 -72 -56z"/>
<path d="M2353 5270 c-44 -67 -41 -72 7 -14 22 27 40 52 40 56 0 19 -18 4 -47
-42z"/>
<path d="M2190 5113 c-44 -73 -48 -82 -23 -60 23 20 76 117 65 117 -4 0 -23
-26 -42 -57z"/>
<path d="M1923 4718 c-76 -119 -153 -353 -152 -458 1 -91 14 -115 15 -27 0 75
29 179 79 293 28 64 29 68 14 58 -8 -4 -9 1 -4 17 7 23 18 43 66 124 29 50 15
44 -18 -7z"/>
<path d="M4540 3760 c-14 -11 -30 -18 -36 -16 -12 5 -109 -47 -119 -64 -3 -6
4 -10 17 -10 15 0 4 -8 -32 -23 -67 -28 -107 -53 -275 -172 -120 -86 -174
-117 -265 -159 -44 -20 -413 -296 -575 -430 -471 -390 -886 -809 -1068 -1079
-27 -40 -66 -93 -88 -119 -21 -26 -39 -55 -39 -65 0 -23 -36 -83 -50 -83 -5 0
-10 11 -10 25 0 14 -4 25 -8 25 -12 0 -36 -29 -52 -60 l-13 -25 22 19 c21 19
21 19 21 0 0 -10 -9 -39 -20 -63 -24 -53 -24 -50 1 -44 11 3 45 37 76 74 30
38 57 69 59 69 2 0 -18 -37 -45 -82 -27 -46 -47 -85 -45 -87 15 -16 134 141
127 168 -6 24 8 44 128 187 50 60 98 126 108 146 9 21 90 117 181 215 91 97
165 180 165 184 0 9 72 72 170 147 44 33 166 131 270 217 411 340 804 615
1048 736 l62 31 -45 -42 c-33 -31 -37 -36 -13 -21 62 41 219 174 300 253 89
88 112 128 87 153 -19 18 -14 19 -44 -5z m-2291 -1957 c-6 -15 -38 -66 -72
-114 -34 -48 -68 -95 -75 -105 -25 -37 -3 35 25 79 25 40 123 167 129 167 2 0
-1 -12 -7 -27z"/>
<path d="M5270 3042 c0 -10 -9 -25 -19 -34 -11 -9 -23 -34 -26 -55 -4 -21 -18
-83 -31 -137 -13 -55 -22 -101 -20 -103 2 -3 12 17 21 44 10 26 31 80 47 118
27 64 49 185 34 185 -3 0 -6 -8 -6 -18z"/>
<path d="M5181 2658 c-7 -21 -16 -38 -20 -38 -13 0 -81 -100 -81 -120 0 -12
-34 -86 -75 -166 -48 -92 -74 -155 -73 -172 2 -28 -39 -95 -53 -87 -14 9 -151
-185 -153 -217 -1 -10 -4 -17 -7 -16 -10 5 -39 -24 -34 -32 7 -11 -149 -225
-162 -223 -6 1 -35 -30 -64 -69 -29 -39 -60 -73 -69 -75 -17 -5 -45 -51 -36
-60 2 -3 15 1 27 8 23 12 23 12 6 -15 -40 -61 -1 -16 120 137 187 236 199 252
184 243 -7 -5 4 18 25 50 20 33 53 85 72 117 19 31 36 57 38 57 2 0 -14 -36
-36 -80 -22 -44 -38 -80 -36 -80 7 0 114 176 163 268 25 48 63 114 83 147 20
33 50 85 65 115 42 82 136 321 132 334 -2 6 -9 -6 -16 -26z m-310 -611 c-10
-9 -11 -8 -5 6 3 10 9 15 12 12 3 -3 0 -11 -7 -18z"/>
<path d="M2719 2263 l-34 -38 38 34 c20 19 37 36 37 38 0 8 -8 0 -41 -34z"/>
<path d="M4537 1623 c-11 -13 -17 -27 -14 -30 3 -2 13 7 23 21 22 34 15 42 -9
9z"/>
<path d="M1882 1368 c-13 -17 -42 -75 -42 -85 0 -4 8 6 18 22 11 17 26 36 35
44 18 15 22 31 8 31 -5 0 -13 -6 -19 -12z"/>
<path d="M1952 1344 c-27 -33 -91 -171 -127 -273 -21 -60 -12 -63 10 -4 9 27
48 108 86 181 37 72 66 132 64 132 -2 0 -17 -16 -33 -36z"/>
<path d="M1834 1259 c-28 -34 -84 -163 -119 -269 -32 -99 -36 -124 -32 -179 3
-35 -1 -100 -8 -145 -12 -76 -12 -87 10 -171 42 -168 85 -250 182 -350 40 -42
64 -56 137 -83 110 -40 141 -41 58 -2 -101 48 -219 173 -226 242 -2 13 -10 37
-19 55 -10 18 -17 41 -17 53 0 11 -5 19 -11 17 -37 -8 -42 241 -10 416 12 66
20 121 18 123 -6 7 -46 -143 -56 -213 -7 -45 -9 -50 -10 -22 -3 82 48 271 118
448 33 81 16 74 -24 -10 -19 -41 -34 -68 -35 -61 0 7 14 40 31 73 30 60 38
109 13 78z m-97 -686 c-3 -10 -5 -2 -5 17 0 19 2 27 5 18 2 -10 2 -26 0 -35z"/>
<path d="M4166 1187 c-88 -97 -186 -218 -186 -230 0 -11 48 24 76 55 12 12 38
48 57 78 36 57 73 95 118 124 30 19 45 56 24 56 -8 0 -48 -37 -89 -83z"/>
<path d="M4015 900 c-65 -65 -121 -117 -124 -115 -2 3 -25 -15 -50 -38 -25
-24 -70 -59 -99 -77 -29 -19 -48 -36 -42 -38 6 -2 7 -9 3 -15 -10 -17 85 64
126 107 24 24 37 32 42 24 10 -16 64 26 133 105 61 70 140 167 134 167 -2 0
-57 -54 -123 -120z"/>
<path d="M3879 903 c-36 -38 -76 -84 -89 -103 l-24 -35 25 23 c14 12 30 22 35
22 5 0 18 15 29 33 10 17 39 53 63 80 69 73 35 56 -39 -20z"/>
<path d="M3777 654 c-77 -65 -102 -94 -49 -55 38 28 138 120 131 121 -3 0 -40
-30 -82 -66z"/>
<path d="M3572 634 c-55 -41 -83 -68 -49 -48 22 14 117 86 117 90 0 8 -7 3
-68 -42z"/>
<path d="M3415 425 c-16 -13 -57 -40 -90 -60 -45 -28 -53 -36 -30 -30 45 10
131 62 149 90 20 31 10 31 -29 0z"/>
<path d="M3155 359 c-16 -10 -66 -34 -110 -53 -44 -18 -96 -44 -115 -57 -45
-31 -294 -115 -380 -128 -36 -6 -86 -11 -112 -11 -41 0 -48 -3 -48 -20 0 -17
7 -20 39 -20 22 0 60 9 86 20 26 11 66 20 89 20 50 0 302 96 363 137 21 15 74
41 118 60 44 18 89 42 100 53 24 25 10 25 -30 -1z"/>
<path d="M3152 271 c-57 -33 -102 -62 -102 -67 1 -4 -20 -19 -47 -32 -26 -14
-42 -27 -36 -29 16 -6 110 25 115 36 2 5 29 25 61 45 32 20 55 41 52 46 -3 5
8 16 24 25 24 12 51 36 39 35 -2 -1 -49 -27 -106 -59z"/>
<path d="M1850 281 c5 -11 15 -23 21 -27 6 -3 3 5 -6 20 -20 30 -30 35 -15 7z"/>
<path d="M1898 214 c26 -38 88 -94 104 -94 7 0 8 3 3 8 -6 5 -37 33 -69 63
-44 40 -54 46 -38 23z"/>
<path d="M2615 71 c-66 -17 -130 -29 -270 -52 -33 -6 -87 -8 -120 -6 -38 3
-51 2 -35 -3 36 -11 262 -12 255 -1 -12 20 88 24 157 6 36 -9 138 21 138 40 0
19 -5 19 -75 -5 -82 -28 -90 -25 -20 9 70 34 66 36 -30 12z"/>
</g>
</svg>
