<svg xmlns="http://www.w3.org/2000/svg" viewBox="0 0 1024 768">
  <path fill="#606060" d="M264.57 715.427q5.05 7.646 8.189 11.467 3.275 3.686 6.28 5.323 3.139 1.639 7.236 1.639v4.505h-37.403v-4.505h1.775q3.139 0 3.139-1.775 0-1.502-2.185-5.187l-20.203-32.626-4.914 5.187v26.755q0 3.412.683 5.051.683 1.502 2.866 2.048t7.099.546v4.505h-38.087v-4.505q5.05 0 7.236-.546 2.185-.683 2.866-2.185t.683-4.914v-65.523q0-3.548-.683-5.051-.683-1.639-2.866-2.185-2.185-.682-7.236-.682v-4.505h38.087v4.505q-5.05 0-7.236.682-2.185.546-2.866 2.185-.546 1.502-.546 5.051v31.533l29.621-34.262q2.048-2.458 2.048-3.822t-1.912-1.366h-4.914v-4.505h32.762v4.505q-6.962 0-13.24 3.548-6.28 3.412-13.786 11.33l-14.469 15.016zM351.047 707.101h-40.952q.409 11.74 4.505 17.883t13.787 6.143q6.689 0 11.057-3.002 4.368-3.139 6.962-9.282l4.231 2.458q-3.412 8.327-9.555 13.377t-18.427 5.051q-29.348 0-29.348-33.172 0-16.791 7.373-25.253 7.509-8.463 21.841-8.463 15.016 0 21.705 8.736 6.826 8.736 6.826 23.752zm-16.655-5.46q0-12.15-2.185-17.747t-9.146-5.597q-6.689 0-9.828 5.597-3.002 5.597-3.275 17.747zM421.699 707.101h-40.952q.41 11.74 4.505 17.883t13.786 6.143q6.689 0 11.057-3.002 4.368-3.139 6.962-9.282l4.232 2.458q-3.412 8.327-9.555 13.377t-18.428 5.051q-29.348 0-29.348-33.172 0-16.791 7.373-25.253 7.509-8.463 21.841-8.463 15.016 0 21.705 8.736 6.826 8.736 6.826 23.752zm-16.654-5.46q0-12.15-2.185-17.747t-9.145-5.597q-6.689 0-9.828 5.597-3.002 5.597-3.275 17.747zM477.472 672.839q11.74 0 18.154 8.053 6.553 7.916 6.553 23.341 0 17.473-8.326 26.619-8.326 9.009-23.888 9.009-3.412 0-6.416-.546t-6.826-1.912v17.064q0 2.866.683 4.232.819 1.366 3.002 1.912 2.321.546 7.236.546v4.505h-35.355v-4.505q4.095 0 5.87-.546t2.321-1.912q.546-1.229.546-4.232V685.94q0-3.002-1.093-3.822-.956-.956-4.641-.956h-2.458v-4.641l19.657-3.002h3.822v7.645h.136q3.139-3.822 8.873-6.007 5.87-2.321 12.15-2.321zm-9.282 61.564q8.463 0 12.831-6.826 4.368-6.962 4.368-19.793 0-12.696-4.232-19.384-4.095-6.689-11.877-6.689-3.959 0-6.962 1.502-2.866 1.366-5.597 3.412v43.41q4.777 4.368 11.467 4.368zM565.426 739.864q-7.509 0-11.74-4.095-4.231-4.231-4.231-11.877v-44.228h-8.053v-4.504q7.099-2.185 11.33-7.509 4.231-5.461 6.689-14.879h5.734v21.432h14.606v5.461h-14.606v39.45q0 6.143 2.321 9.145t7.236 3.002q3.685 0 6.826-1.366l1.502 3.412q-5.051 3.275-8.736 4.914-3.548 1.639-8.872 1.639zM629.366 672.702q5.87 0 8.599 3.412 2.866 3.275 2.866 8.053 0 4.504-2.321 7.099-2.321 2.458-6.553 2.458-3.685 0-5.87-1.912-2.048-1.912-2.048-5.323 0-2.048.546-3.275.682-1.229 1.639-2.321 1.093-1.093 1.093-1.502 0-.546-.409-.956t-1.366-.409q-2.458 0-5.461 3.139t-5.187 8.463q-2.185 5.187-2.185 11.194v26.21q0 3.002.683 4.368.819 1.366 3.139 1.912t7.509.546v4.504h-36.037v-4.504q4.095 0 5.87-.546 1.775-.683 2.321-2.048t.546-4.232v-39.45q0-3.686-.819-4.914-.819-1.366-3.002-1.366h-4.095v-4.641l19.657-3.139h3.822v11.877h.273q6.007-12.696 16.791-12.696zM709.887 727.031q0 2.866.546 4.368.682 1.366 2.458 1.912 1.912.546 5.734.546v4.505h-24.161v-9.418h-.136q-12.696 10.921-23.888 10.921-8.736 0-13.377-4.914-4.505-4.914-4.505-14.333v-33.853q0-3.822-.819-5.051t-3.275-1.229h-4.095v-4.505l19.93-2.458h3.959v43.137q0 6.826 3.002 10.648 3.139 3.685 8.873 3.685 3.548 0 7.236-2.185 3.822-2.321 6.689-5.323v-36.721q0-3.822-.819-5.051-.683-1.229-3.139-1.229h-4.095v-4.505l19.93-2.458h3.959zM787.493 707.101h-40.952q.41 11.74 4.505 17.883t13.786 6.143q6.689 0 11.057-3.002 4.368-3.139 6.962-9.282l4.231 2.458q-3.412 8.327-9.555 13.377t-18.428 5.051q-29.348 0-29.348-33.172 0-16.791 7.373-25.253 7.509-8.463 21.841-8.463 15.016 0 21.705 8.736 6.826 8.736 6.826 23.752zm-16.653-5.46q0-12.15-2.185-17.747t-9.146-5.597q-6.689 0-9.828 5.597-3.002 5.597-3.275 17.747zM814.738 739.59q-4.095 0-6.962-2.866t-2.866-6.962 2.866-6.962 6.962-2.866 6.962 2.866q3.002 2.866 3.002 6.962t-3.002 6.962q-2.866 2.866-6.962 2.866zM309.71 320.713c.749 3.371 1.873 6.742 2.247 10.113 0-3.371-.374-6.742-1.123-10.113l.374 2.996c-2.247-4.12-1.123-12.735-3.371-20.975l2.622 5.244c-.749-5.244-1.873-10.113-3.371-15.357v2.247c-7.866-26.593-22.848-44.947-49.067-53.188.749.749 5.244 2.247 9.364 4.495s7.491 4.495 6.742 4.495c-10.113-5.993-16.481-8.24-22.474-9.739-7.117-2.622-14.983-3.746-22.848-4.121-2.247.749 13.484 2.996-3.746 3.371 1.123-1.498-13.858-1.498-2.247-3.746-14.608 2.247-11.611-.374-22.099 2.996 1.123-.374 2.996-.749 4.869-.749 3.746.374-5.993 1.873-9.739 2.622-7.117 0-13.858 0-20.975 1.499-7.491 2.247-14.608 4.12-21.35 6.368-1.123 0 0-.749 0-.749-20.226 5.993-41.951 11.237-56.184 15.357-1.124.749-4.121 1.873-2.622 1.873.749 0 2.622-.374 6.367-1.124-8.24 3.371-19.852 4.495-28.466 5.244 2.247-.749 4.495-1.873 6.742-2.996-8.99 1.873-18.728 2.996-28.092 2.996s-27.343-1.498-32.961-10.113v2.247c-.374-.374-.374-.374-.374-.749l-1.873 1.123c1.873-.749 4.495 3.745 11.236 6.742 4.12 1.873 8.99 2.996 10.862 2.996 1.498 0 1.873-.374 1.123-1.123 7.117.374 10.488 1.873 9.364 2.622 7.117-.374 14.608-1.123 22.099-2.622 2.622.374-1.873 2.622-4.495 2.996-5.244.749-12.361 1.498-18.728 1.498-4.869 0-9.364-.374-12.735-1.873-3.371 0-1.873.749-1.498 1.123.374 0 .374.374-.749.374-.749 0-2.622-.374-6.367-1.123-5.993-2.622-10.488-6.368-13.109-11.236-2.247-4.495-2.996-10.862-1.873-17.23 2.247-12.735 7.866-24.721 13.484-32.587-1.873 2.247-3.371 4.495-3.745 4.495 0 0 0-.749.749-2.622 2.247-3.745 4.869-7.117 7.866-10.862 5.618-9.364 7.117-15.357 13.109-20.975.749-2.996-13.109 15.357-17.23 21.35 2.622-11.611 14.983-18.353 19.852-29.59.749-2.622-3.745 3.371-7.866 8.989-2.996 3.746-5.618 7.491-6.368 7.491-.374 0 0-.374.374-1.873 2.996-4.12 6.367-8.24 9.739-12.361-8.989 6.742-14.608 22.099-19.102 23.597 1.873-5.244 12.361-18.728 13.858-19.477.374-.749.749-1.124.374-1.124s-2.996 2.247-3.745 2.247c-.374 0 0-.374 1.123-2.622 6.367-6.368 7.491-10.862 13.484-15.731l-1.498 4.12c4.121-5.244 15.731-17.23 20.975-22.848 1.499 1.123-10.488 15.357-15.357 20.975 4.869-3.745 12.735-13.109 17.23-17.979l-8.615 8.24c11.986-13.109 6.742-12.361 22.099-26.219 4.495-4.495 6.367-5.993 7.117-5.993s0 1.873.374 1.873.749-.374 1.498-.749l7.491-7.117c-.374 0-3.371 2.247-4.495 1.498 11.237-10.113 14.608-11.611 29.965-23.972-8.615 7.491-10.113 10.488-19.102 16.856l3.745-.749c10.862-10.488 19.102-19.103 33.336-30.34h1.873c1.123-1.124 31.837-23.223 65.548-35.958 16.48-6.368 33.336-10.488 50.94-10.488 10.113 0 16.106 2.247 14.233.749 0 0-5.618-1.873-14.233-1.873-14.983 0-28.466 2.622-42.7 6.742l1.123-1.123c12.361-4.495 25.845-7.117 38.954-7.117 8.99 0 23.597 1.498 30.34 9.364 1.498.374 3.745 2.996 5.244 5.993s1.873 5.618 2.996 5.244c1.873 7.491.749 13.858-.374 19.477-2.622 13.484-10.488 26.594-17.979 37.831 5.618-7.491 10.488-14.983 14.983-23.971s8.24-19.103 6.742-32.587c-1.123-22.099-25.845-29.215-44.198-29.215-6.368 0-12.735.749-19.477 1.873-3.746 1.123-7.117 2.247-5.244 2.247.749 0 1.498 0 3.371-.374 4.495-1.123 8.24-1.873 10.488-1.873 2.996 0 3.371 1.123-1.498 2.247-2.996.749-4.495.749-5.244.749-2.247 0-4.495.749-7.491 1.498l6.742-1.123c-13.858 2.996-20.226 5.993-27.343 10.113-25.47 7.866-49.442 22.474-71.167 38.205s-41.201 32.213-59.18 46.445l-9.739 12.361c-1.124 0-2.996.374-7.866 6.368 1.873-2.247 5.244-5.618 4.869-4.495-8.24 8.24-16.106 16.856-23.971 25.845l3.371-1.873c-8.24 7.491-19.102 25.096-26.968 34.085.374.374-3.371 7.117-2.247 7.117-4.869 7.117-8.99 15.357-12.361 23.597-3.371 8.615-5.244 17.979-4.12 27.343 2.622 21.35 17.604 28.466 36.707 32.213-2.622-.749.374-1.123 1.498-1.123 11.612.749 2.622.749 5.244 1.873 1.498-1.499 11.986-1.124 26.594-3.371 14.983-2.247 34.085-6.368 53.562-11.236s38.954-9.739 55.061-13.109c16.106-3.371 28.466-4.869 32.961-5.993-2.996 0-5.618.374-4.869 0 7.117-1.123 14.234-1.873 21.35-1.873 38.954 0 59.555 19.852 67.046 56.558 2.622 12.735 3.371 26.219 2.996 38.58.749-13.484 2.996-3.371 3.371-11.611-.374-1.499-.374-2.247-.374-2.247-.374 0-.749 5.618-.749 5.618-.374 0-.374-.749-.749-3.371 1.498-7.866.749-10.488 0-13.484-.749-2.622-1.498-5.618-1.873-13.858 1.124 2.996 1.873 5.618 2.622 8.615-3.371-21.724-12.735-46.82-32.961-58.432l2.996-.374c-7.866-4.12-19.478-7.866-20.975-9.739 13.859 3.371 21.35 7.491 27.718 11.237 5.618 4.12 10.862 8.24 14.233 16.481l-.749-.749c-.374 0 0 .749.374 1.873 7.117 7.117 12.361 21.35 12.735 31.463l-1.873-4.869c1.123 5.244 1.873 10.488 2.247 16.106l1.123 16.106c.749 11.237-1.498 22.099-3.745 31.463.749-1.498 1.123-1.873 1.123-1.873.749 0-.374 5.244-1.873 11.611l-2.247 4.869c-.374 0 1.123-4.869.749-4.869s-.374 0-.749.749c-3.746 7.491-11.611 29.965-16.481 38.205.749-1.873-7.117 11.236-7.866 11.236-.374 0 .374-1.499 2.247-5.244-10.862 17.604-17.23 31.463-27.343 41.201-.749 2.247-2.622 6.742-5.993 11.611l-1.124-1.499-3.371 6.368c-8.99 10.488-16.106 13.484-24.346 24.721 1.873-1.873 5.244-5.993 6.368-5.618.374 1.873-15.731 19.478-13.484 19.478.374 0 .374-.374.749-.374l7.117-9.364c-.374.749 0 .749 0 .749 1.498 0 8.24-7.866 7.117-5.244 7.117-7.866 13.858-16.106 20.226-24.721l1.499.374-5.244 5.244c-.749 1.499-.749 2.247-.374 2.247 1.123 0 10.862-15.357 16.48-20.601l-.749-.749c16.855-22.099 7.491-8.615 20.975-26.968l2.622-6.742c.374-1.124-9.739 18.353-10.862 16.856 7.117-12.735 17.604-29.965 23.223-44.947l-2.622 10.862c1.873-5.618 8.989-12.735 14.233-26.219-2.247 4.121-4.12 8.24-6.368 11.986 1.123-5.618 4.869-14.233 8.24-24.346 3.371-9.739 6.368-21.35 5.993-31.088 0 5.244-1.123 10.488-2.247 11.236.374-4.495 1.498-16.856 1.498-23.597.749.749 1.498 3.745 1.873 7.866.374 4.495 0 10.113-.749 14.983-1.498 10.488-4.12 19.103-2.247 17.23 3.371-10.113 4.495-20.226 3.745-29.965-.749-8.99-1.498-16.106-1.873-22.474zM289.858 44.662c-.374-1.123-1.123-2.247-1.873-2.996h-.374c1.498 1.498 1.873 2.622 2.247 2.996zM182.734 55.15c.374 0 .374-.374.749-.374-.374 0-.374.374-.749.374zm-37.83 26.593l-1.123-.374c-.374.749-.374.749 1.123.374zm-53.188 44.198c-4.12 3.371-11.236 8.615-11.611 11.237 2.622-2.247 7.117-7.491 11.611-11.237zm-5.618 14.608c-.374 0-.374 0-1.123.749l.374.749c.749-.749 1.124-1.499.749-1.499zm-2.622 3.747l1.873-2.247c-.749.374-1.124 1.499-1.873 2.247zm-14.983 14.607l8.24-8.615c.749 1.123 1.124 1.873-4.121 6.742 1.873-.749 5.618-5.993 8.24-8.615l-1.873 1.498c.749-1.123 2.622-3.745 4.495-5.618-7.866 7.117-15.357 10.862-14.983 14.608zm-3.37 2.997l-6.742 10.113c2.622-3.371 10.113-11.612 6.742-10.113zm-11.612 10.862c-1.873 1.873-3.371 3.745-4.12 5.244l1.498-1.498c.374 0-4.495 5.993-5.244 8.24 8.989-10.113 2.996-5.618 7.866-11.986zm-23.597 30.714l-.374.374c-.749.749-.749 1.873-1.498 2.622zm-13.11 37.456c2.247-7.866 5.618-14.983 7.866-20.601-1.873 2.996-2.622 4.121-2.996 4.121s.374-2.247 1.498-4.869c1.873-4.495 6.368-11.237 7.491-13.484-7.866 10.862-11.986 22.474-15.357 35.209v-.374c-1.123 7.491-.749 14.233 1.498 18.353-2.247-4.495-1.873-11.612 0-18.353zm11.237-34.46l-.374.749c0-.374.374-.374.374-.749zm172.672 32.962h-.374zm65.922 4.869c-2.622-1.498-4.869-2.247-7.117-3.371zm0 0l5.244 2.996c-1.873-1.124-3.371-2.247-5.244-2.996zM17.928 261.158c-.374-.374-.749-1.123-1.124-1.873.374.749.374 1.498 1.124 1.873zm26.219 208.256c-1.498 1.873-1.873 2.622-2.247 2.622s1.873-4.121 1.498-4.121c-.374 0-.749.749-1.873 1.873 4.12-7.866 13.109-16.106 22.099-28.466l-1.124 1.124c-.374 0 0-1.499 1.124-3.371 7.491-7.866 19.477-21.35 27.343-29.216-.374 0-.749-.374-.749-.749 7.491-6.368 9.364-8.24 18.353-14.608 32.213-26.968 69.294-57.683 106.75-76.785 1.499-.749 2.622-1.124 2.996-1.124 1.873 0-10.862 8.24-7.117 6.742 31.088-23.971 38.58-32.961 31.838-35.209l-4.495 3.371c0-.374-.374-.749-.749-.749-1.123 0-2.622.749-5.618 2.622-3.746 2.247-4.121 3.371-3.371 3.371.374 0 2.247-.749 2.996-.749.374 0 .374.374-.749 1.498-13.858 2.996-34.085 24.346-48.693 28.466-47.944 33.336-101.88 80.156-133.718 122.856l1.873-1.873c-1.124 1.873-11.612 16.106-12.361 16.106l.374 2.622c-2.622 4.495-3.745 5.993-4.495 5.993-1.123 0-.374-4.869-1.498-4.869-.749 0-2.247 1.499-5.244 7.117 1.873-2.622 2.996-3.746 3.745-3.746 1.498 0-.749 6.368-3.745 11.236 1.123-1.499 3.745 0 5.618-3.746 2.622-3.371 5.244-6.367 7.866-9.364-1.123-1.124 1.123-5.618 4.495-10.488s7.866-9.739 10.113-12.361c0 .374 0 .749-.374 1.124-1.124 1.499-1.124 1.499 0 .374-1.499 4.121-4.12 8.99-9.364 14.608-4.495 7.491-8.99 14.608-13.109 22.099 2.996-2.996 6.367-5.244 11.611-14.233zm253.952-108.249c2.247-4.495 3.745-7.866 3.371-14.983l-1.873 7.491c-.374 0 0-2.996-.374-2.996s-.749.749-1.873 3.745c-1.124 7.491-2.996 14.608-4.869 21.35 3.371-6.742 4.12-11.236 5.618-14.608zm.374-13.858c-.374 1.873-.749 4.12-1.123 7.117zm-1.123 22.473c-.749 1.873-1.499 4.12-1.873 5.993 0-.749.374-1.498.749-2.247zm-4.869 5.993c-.749 1.498-1.124 2.996-1.873 4.869.749-1.498 1.123-3.371 1.873-4.869zm-19.478 45.697c10.113-12.361 16.855-29.965 22.474-45.696-1.123 2.247-2.247 4.495-2.996 7.117-.749-2.247-5.618 7.491-7.117 7.491 2.622 1.124-7.117 17.604-11.986 26.593zm-183.909-6.742c1.124 0 2.622-1.873 6.742-5.993-1.499.749-3.746 2.996-6.742 5.993zm198.517.375v.749zm0 .748c-.374.374-.374.374-.374.749zm-30.339 34.085c6.368-10.113 12.735-20.226 18.353-31.088-2.622 4.12-5.618 8.24-8.615 12.361-2.996 6.368-6.368 12.735-9.739 18.728zm-20.601 21.35l6.368-9.364c-1.873.374-13.109 19.852-15.357 17.23-2.247 3.745-2.247 4.869-1.873 4.869.749 0 3.371-2.247 4.121-2.247.374 0-.374 1.499-4.121 6.742 11.611-14.983 20.601-25.47 30.34-38.58-3.371 3.745-4.121 5.244-8.615 10.113 6.742-8.99 14.608-22.099 21.35-33.71-4.495 4.495-8.24 11.611-13.484 18.728 1.123-1.124 1.873-2.247 2.247-2.247s0 .749-.749 2.622c-8.615 9.739-11.611 17.604-20.226 25.845zM65.123 439.823l-.749.749c.374 0 .749-.374.749-.749zm-.75.749l-.749.749c.374 0 .749-.374.749-.749zm191.026 4.495c-.749 1.124-2.247 2.622-2.996 4.121 1.124-1.499 2.247-2.622 2.996-4.121zM44.896 466.792c-.374 0-.749.374-.749.749zm-12.36 16.854c-2.247 2.247-4.495 4.495-7.117 9.739 0 .374 0 1.124.374.749-2.996 5.618-6.368 13.109-8.24 20.975.374-1.499 1.123-2.996 1.498-4.12 3.371-10.113 8.615-18.728 13.484-27.343zm-7.492 2.997c.749-1.873.749-2.996.374-2.996-1.123 0-4.12 5.244-6.368 11.236 2.996-7.117 5.993-10.113 5.993-8.24zm193.273 5.993c-1.873 0-22.848 23.597-23.597 26.968 10.113-7.866 10.113-11.236 13.484-15.731 2.247-1.873 7.866-7.866 8.99-8.24.374-1.124 1.873-2.996 1.123-2.996zm-199.64 78.658c-.374-.374-.749-1.124-1.123-1.873v-.749c2.996 3.746 5.993 8.615 9.364 12.735 3.371 3.745 6.742 6.367 7.117 5.244-3.746-2.622-8.99-7.117-12.361-12.735-2.247-2.622-5.244-8.24-5.244-11.986-.749-1.499 0 1.123-.749 1.123 0 0-.374-.374-1.499-2.622v-.749c-1.123-4.869-1.498-7.117-1.123-8.99 0-1.873.374-2.996.749-6.367l-1.499-5.993c1.873-.749 2.247-8.99 4.12-18.353l1.124-4.869c-2.622 7.491-4.869 15.731-5.618 24.721-.374 6.368.374 13.109 1.873 19.478-4.12-9.739-3.745-20.601-1.873-30.714 1.873-10.488 5.618-20.226 9.739-30.714.749-2.247.749-2.996.749-2.996-.749 0-5.618 12.735-6.368 13.484-.749-1.873.374-4.495 1.873-7.117s2.996-5.244 2.996-7.866c-.374-1.124-3.371 3.745-6.367 10.488s-5.244 14.983-6.742 19.852c-1.123 8.615 0 8.615.749 11.236-1.498 2.247-1.498 11.236-2.622 13.484 2.247 11.236 6.367 27.343 15.731 35.209.374.749 1.873 2.247 2.996 3.371 1.873 1.873 4.495 2.996 4.495 2.622-2.247-1.873-4.869-2.996-6.742-5.244 1.873 1.499 3.746 2.996 5.993 4.12.374.749.749.749.749 1.124.374.374.749.374 1.123.749l-.749-.749c4.12 1.873 9.739 4.12 15.731 5.244 3.746 1.124 8.24 1.873 12.361 1.873 1.499 0 3.371 0 4.869-.374-2.622 0-5.244 0-7.866-.374-16.48 0-29.965-10.113-35.958-24.721zm198.517-74.538c.749-.749.374-1.124 0-1.124-.374 1.124-.749 1.873 0 1.124zm-2.622 7.866l-.374.374s.374 0 .374-.374zm-.375.749v-.374c-.749 1.124-.749 1.124 0 .374zm-4.12 5.244c-8.24 10.862-27.343 25.47-22.848 25.845 4.869-4.495 8.615-8.24 9.739-9.739l-.374.749s8.24-9.364 13.484-16.856zm-16.106 6.367c-5.244 3.371-5.993 5.993-10.862 9.739l-5.244 7.491c1.124-1.124 2.622-2.622 3.746-4.12l1.498.749c.374-1.124 2.247-5.618 10.862-13.858zm-5.993 14.983c-2.622 2.247-10.113 10.488-12.361 10.113-3.371 2.622-4.121 3.371-3.746 3.371s3.371-1.873 3.746-1.873l-3.746 3.371c-2.622 2.996 16.106-13.484 16.106-14.983zm-1.124 4.869c-6.368 4.495-9.739 8.24-16.855 14.608 5.244-4.495 11.611-9.739 16.855-14.608zm-32.587 14.234c5.244-3.371 10.113-7.491 14.983-10.862l-3.745 2.247zm-4.494 12.735l3.371-4.495c-6.742 5.244-11.612 8.24-16.106 10.488 3.371-1.124 2.247.749 12.735-5.993zm-18.354 1.498c-4.12 4.12-13.859 6.742-20.601 10.113l-2.247 2.247c7.117-4.121 11.611-5.618 14.983-6.742s5.618-2.247 7.866-5.618zm5.619 4.494c-1.499.749-3.745 1.873-8.24 4.495 1.873-.749 6.742-2.996 8.24-4.495zm-9.739 6.368c-2.622 3.371-14.608 7.491-16.106 9.364.749.374 7.491-2.247 9.739-2.996 1.123-3.371 15.357-7.866 7.866-8.24-3.371 1.873-7.866 4.495-13.484 7.491zm-61.802 11.986c1.873.749-2.996 2.622 1.124 2.622 1.124 0 2.996 0 5.618-.374 1.873-1.124 6.742-1.873 5.618-2.622 1.498-.374 2.622-.374 3.371-.374h4.869c8.989-3.371 22.848-8.24 29.215-12.735-3.371 1.873-4.12 2.247-6.742 2.996-6.742 2.622-14.983 5.618-22.474 7.866-6.742 1.873-13.484 2.622-20.601 2.622zm55.434-5.619c-.374.374-.374.749-.374.749 1.123-.749 1.123-.749.374-.749zm-48.692 11.612c2.247 0 4.495.749 6.742.749 5.244-2.247 10.488-4.495 15.357-7.117-5.618 2.996-12.361 4.12-17.979 5.244-5.618.374-9.739 1.124-10.862 2.622l-6.742-.749 3.745 1.499h4.495c2.247-.374 4.121-.374 5.993-.374-4.869 0-7.117-.749-.749-1.873zm30.714-6.368c-4.121 1.499-6.742 2.247-8.24 2.996 2.996-1.124 5.618-1.873 8.24-2.996zm-18.354 7.866c10.113-2.247 9.364-2.996 8.615-3.371-.374-.374-.374-.749 1.499-1.499-4.495 1.499-8.99 2.996-13.859 4.12zm-11.611.374c1.124 0 1.873 0 2.996-.374-.749 0-1.873.374-2.996.374z"/>
  <path fill="#7e5d5d" d="M477.788 433.081c9.364-13.484 16.106-21.724 22.848-30.34-15.731 16.856-32.961 37.456-52.439 57.307-1.124 1.873-2.247 3.746-1.873 3.746s.749-.374 1.873-1.499c2.622-3.371 4.869-5.618 5.618-5.618.374 0 .374.749-.749 2.622-1.499 2.622-2.247 2.622-2.622 2.622s.374-1.499-2.996 3.371l3.371-2.622c-5.993 6.368-8.989 10.113-11.611 14.983-13.858 10.862-27.718 23.223-43.075 29.216-4.121 1.499-7.866 1.873-11.611 2.622-11.611 0-22.474-4.12-30.34-13.109-2.622-1.873-5.244-3.746-7.866-6.368.374-.749.749-2.247-2.247-5.993.749 1.499 2.247 4.12 1.873 3.745-4.12-6.367-7.491-13.484-9.739-20.601l-.374 2.622c-1.498-7.117-6.742-19.852-5.993-28.466-.374 0-1.873-4.869-2.622-4.12-.374-8.615-1.123-17.23-1.498-25.845l1.873-1.873c2.247-2.247 2.247-2.996 1.873-2.996s-1.873.749-2.247.749c-.374 0-.374-.374 0-1.124 9.739-4.121 16.106-23.971 25.845-29.216 22.848-33.71 44.572-77.159 61.053-110.121l-1.499 1.498c1.499-3.745 5.993-12.361 7.117-12.361l-1.124-2.247c1.124-3.371 1.873-4.12 2.622-4.12 1.124 0 1.499 3.746 2.622 3.746.749 0 1.873-1.499 3.371-5.244-1.124 1.873-1.873 2.622-2.622 2.622-1.124 0-.749-4.495 1.124-8.24-1.124.749-3.745-.374-4.869 2.622l-4.869 6.742c2.247 1.498-4.495 13.484-7.117 17.604v-.749c.749-1.123.374-1.123 0-.374 0-2.996.749-7.117 4.121-11.237 2.247-5.618 4.869-11.236 7.491-16.856-2.622 2.247-5.244 3.745-7.866 10.862.749-1.498 1.124-1.873 1.124-1.873.374 0-.749 2.996 0 2.996l1.124-1.498c-1.873 6.368-7.866 12.361-11.986 22.474.374-.749.749-.749.749-.749.374 0 .374 1.123 0 2.247-4.121 6.742-9.364 18.353-12.735 25.096.374-.374.374 0 .749 0-3.745 5.993-4.869 7.866-9.364 13.858-15.731 23.597-34.085 58.057-51.315 74.163-1.123.749-1.498 1.124-1.873 1.124-1.123 0 4.869-7.491 2.622-5.993-2.622 4.495-4.869 7.866-6.367 11.236-.374-9.364.374-18.353 1.873-26.219-.374.749-.374.749-.749.749s-.374-1.123-.749-1.498c0-3.371.374-4.12.374-4.12.374 0 .749 1.498 1.498.374-2.622-1.498-.374-28.092 5.244-54.685 4.869-26.969 12.735-54.686 12.735-61.053-.374 1.873-1.124 3.746-1.124 2.996 8.24-35.958 20.226-73.788 32.587-106.375-1.499 3.745-2.247 4.495-2.996 4.495-.374 0-.749-.374-1.123-.374.374 0 0 .749-.374 2.622-6.742 8.989-.749 7.866-7.117 17.604l.749-6.368c-3.371 12.735-8.99 30.34-13.859 45.696l-1.123-1.873c-1.123 5.993-3.371 13.858-5.618 14.608 5.618-17.979 2.622-22.474 7.866-32.961.374 1.498.374.749 1.123 0 0-4.869 1.498-13.859 5.618-22.099l-.374 3.746c4.869-13.484 11.236-28.092 16.106-40.078-.374.749-.749 1.124-1.123 1.124-.749 0 0-3.371 1.873-7.866 1.124-2.247 1.499-2.996 1.873-2.996s-1.123 3.371-.374 3.371c4.869-4.869 8.989-20.601 12.361-26.219-.374 1.498 5.618-7.866 6.368-7.866l-1.499 3.746c7.491-11.986 11.236-22.099 19.477-28.092.374-1.498 1.873-5.244 4.495-8.24l1.124 1.123c.749-1.498 1.499-2.996 2.622-4.12 7.491-7.491 13.858-7.117 22.474-11.986-1.873.749-5.244 2.247-5.993 1.498 0-2.622 13.109-5.993 16.106-6.742 1.873-.374 2.622-.749 1.499-1.123-4.12.374-7.117 1.123-10.488 2.247 1.124-.749.749-.749 0-.749s-1.873 0-3.371.374c-2.247.749-4.869 1.498-3.746.374-8.24 4.12-14.233 9.739-19.478 15.357l-1.499-.749 4.495-3.371c.749-1.123.749-1.873.374-1.873s-1.873 1.498-4.12 3.745c-3.371 3.371-7.117 8.24-9.739 10.113l.749 1.124-8.989 10.113c-1.124 1.124-2.247 1.873-7.117 8.24l-1.499 4.869c0 .749 6.742-13.109 8.24-11.611-5.244 8.99-12.361 20.975-16.106 31.463l1.124-7.866c-1.124 3.746-6.742 8.24-10.862 17.23l5.244-7.866c-1.123 8.24-11.236 23.597-14.233 35.583 1.123-3.371 2.622-6.368 3.371-6.368-.374 2.996-3.745 9.739-5.618 13.859-2.622-2.996 9.364-26.969 5.993-25.096-5.993 12.361-6.742 24.721-10.488 32.587l.749-7.117-1.873 6.368.749-1.873c.374 3.371-2.996 8.24-4.495 13.109l-.374-3.746-3.371 9.364.749-1.124c-4.495 15.357-8.989 28.466-13.858 41.95l2.996-7.866c0 .749-1.123 4.869-2.247 8.615 1.123-.749 3.745-10.862 4.495-9.739-4.121 13.109-5.993 14.233-10.113 27.343.374.749 1.873-2.247 2.996-2.247.374 0 .374 1.123-.374 5.618-.749-1.123-2.622 3.371-3.745 3.371-.374 0-.374-.749-.374-2.996-1.123 9.739-2.996 6.742-2.996 14.608.374-.749.749-2.247 1.123-3.371.749-2.622 0 4.121-.374 6.742-2.247 4.12-3.745 6.368-5.618 13.484l-1.873 14.983c-.374.749-.749 0-.749 0-2.247 14.233-5.618 29.591-5.993 40.453.374.749.374 2.247.749 2.247s.749-.749 1.123-4.495c.374 6.368-1.873 14.233-3.371 20.975l-.749-5.993c-1.873 18.728-5.618 40.827-4.12 58.057l1.498-3.371v1.499l1.873.374c-4.121-1.499 1.873-25.47-.374-25.47-.374 0-.374 0-.749.374.374-5.993 2.247-8.24 2.996-7.491 0-5.618.374-11.236.374-16.481.749-1.873 2.247 1.873 1.873 3.745-1.123 6.368 0 17.23-1.873 23.597 0 1.123.374 1.498.749 1.498s.374-.749.749-.749c.374 0 .374 1.123.374 6.368-2.996 19.852 0 44.198 0 58.432.374-2.247 0-4.495.374-4.495s.749.749 1.123 1.873v10.113c1.498 7.866 4.495 11.611 4.869 17.604 1.498 1.873-2.247-14.233-1.873-19.852 5.244 7.117.749 17.23 6.368 24.721 1.123 1.873 0-3.746-1.124-8.24-.749-3.745-1.873-7.117-1.123-7.117.374 0 .749.374 1.123 1.124.374 3.371 1.124 7.117 1.873 10.862.749-7.866-4.869-17.979-2.247-21.35 1.499 3.746 2.996 15.357 2.996 16.481.374.374.374.749.374.749.749 0 .374-3.371 1.123-3.371.374 0 .749.374 1.123 1.873.374 6.368 2.996 8.24 3.371 13.484l-2.247-2.247c1.499 4.495 5.244 15.357 8.615 19.478-1.873 1.873-9.364-9.739-10.488-14.983.374 4.495 4.12 12.735 7.117 16.481-1.498-2.622-2.622-5.244-3.371-7.866 2.622 5.618 4.869 7.117 6.742 8.99 2.247 2.247 4.12 4.12 8.615 9.364 8.989 7.491 1.123 3.371 3.371 6.742l6.742 3.745s-2.247-1.873-1.873-2.996c7.491 4.495 16.106 8.24 25.096 8.24h-5.993c-4.12 0-6.742-.374-11.986-2.622.749.749 1.123 1.873 1.873 2.622 3.371.749 6.742 1.124 10.113 1.124 7.117 0 13.858-1.873 21.35-5.244l1.499 1.124c0-.374 1.873-1.124 4.495-2.247 12.361-5.244 28.092-18.353 37.456-27.718 17.604-17.604 32.212-35.209 29.59-34.085.374 0-10.113 12.361-21.724 24.346-1.124 1.499-2.996 2.622-4.495 4.12l.374-1.124c10.488-11.236 20.226-23.223 29.965-34.834-1.124-2.247 4.495-6.742 2.622-7.491zm-21.35-394.787c5.244 0 10.862 2.247 14.233 6.367s4.869 7.117 5.993 7.117c.374 0 .374 0 .749-.374-2.247-4.495-5.618-8.24-7.491-9.739l.749.374s-2.622-2.247-6.742-3.371c-1.499-.374-3.371-.749-5.244-.749-2.622 0-5.244.374-7.117 1.123 1.499-.374 2.996-.749 4.869-.749zm-10.487 2.622h.374c1.124-.374.749-.374-.374 0zm-5.244 8.616c.374 0 .749-.374 1.124-.374 4.495-2.622 10.488-4.12 15.731-4.12 2.247 0 3.746.374 5.244.374h.749c-2.622-1.873-4.869-2.622-6.742-2.622-2.622 0-4.869 1.123-7.117 2.622-1.873 0-6.742 1.873-7.866 1.873-.749.749-1.873 2.247-1.124 2.247zm1.497-3.372c-.749.749-.749.749-.374 1.123.374-.749.749-1.123.374-1.123zm25.846 5.618c-1.499-1.123-3.371-3.371-6.368-4.869 2.247 2.622 4.12 2.996 5.618 6.742 1.499 1.123 2.622 2.996 3.745 4.495-.374-1.123-.749-2.247-1.499-3.371l1.124-1.123c0-.374-1.124-.749-2.622-1.873zm-36.333 4.495c.374 0 .374 0 .749.374 2.247-2.622 2.247-3.371 1.499-3.371s-2.622.749-2.996.749c-.749 0 0-.749 3.371-4.12-10.113 8.24-16.856 15.357-23.971 23.971 2.622-2.247 2.996-3.371 6.368-6.367-4.869 5.993-10.113 15.357-14.608 23.223 3.371-2.622 5.618-7.866 9.364-12.735l-1.499 1.498c-.374 0 0-.749.374-1.873 6.368-6.367 8.24-11.986 14.983-16.855-1.873 1.873-3.371 3.745-4.869 5.993 1.499 0 8.24-10.488 11.236-10.488zm41.951-6.367c1.124 2.996 4.495 10.488 2.996 11.986.374 2.622.374 3.746.749 3.746 0 0 .374-3.371.749-3.371 0 0 .374.374.374 1.498 0-1.123-.374-2.622-.749-4.495-1.124-4.495-3.371-8.989-4.12-9.364zm7.491 19.102c-.374-4.869-1.124-11.237-3.371-16.856h-.374c1.499 6.367 2.622 9.739 3.745 16.856zm-2.247-3.745c0-.749-.374-1.124-.374-1.499 0 .749.374 1.124.374 1.499zm-7.491 0c0 1.124 0 1.873-.374 2.996.374 3.371.374 6.367.374 9.739.374-4.495.374-8.615 0-12.735zm-62.177 8.615c-4.495 7.117-8.615 14.234-12.361 21.724 1.873-2.996 3.746-5.618 5.993-8.615 1.873-4.495 4.121-8.615 6.368-13.109zm67.795 8.24c0 5.993-.374 10.113-1.124 13.484 1.124-2.247 1.873-.749 2.996-9.739zM398.755 93.73c-4.869 5.244-12.735 21.35-18.728 34.834l4.495-8.615c.749 1.873 4.495-4.869 5.993-4.495-2.247-1.124 5.244-11.986 8.615-17.979zm76.036 8.24l1.124-6.367c-.374 1.124-.749 2.622-1.124 6.367zm-5.618-5.618c.374 4.121-2.996 10.113-3.371 15.357l.749 2.247c.374-11.236 4.869-12.361 2.622-17.604zm5.993 7.116c1.124 2.996-1.873 10.862-.749 12.735.749-.374 1.873-5.244 2.622-6.368-1.873-2.247.749-8.615-.749-8.615-.374 0-.749 0-1.499.749-.374 2.622-1.124 5.993-1.499 10.488zm-16.106 41.576c.374 0 1.124-1.123 2.247-4.495 0-1.873.749-4.869-.374-4.495 1.499-3.746 2.247-2.622 2.996-5.244.749-6.368 3.746-16.481 3.746-21.725-.374 2.622-.749 2.996-1.124 4.869-2.996 9.739-5.244 23.597-9.364 29.965 1.124-.749 1.499 1.124 1.873 1.124zm18.353-34.834c0-.749 0-.749-.374-.374 0 0 0 .374.374.374zm-92.516 14.608c-3.746 11.612-8.615 10.488-10.862 19.102 1.873-3.371 2.622-4.495 2.996-4.495 0 0-.749 2.247 0 2.247l1.873-2.247c2.622-5.618 5.244-11.611 7.117-17.604zm85.775 2.622c.374-1.873 1.124-3.746 1.499-5.618-1.124 2.996-1.499 4.869-1.499 5.618zm-3.746 14.233c-.749 1.873-1.499 2.996-1.873 2.996s-.374-.749 0-2.996l2.622-3.745.374-11.612c-.374 8.989-6.368 17.604-3.746 20.226l-2.247 3.745 2.247-1.498c-.374.374-.374 1.123-.374 1.498l.374-1.498c.749-2.996 1.873-5.244 2.622-7.117zm3.746-6.742c1.873-5.618 1.499-5.993 1.124-5.993-.749 0-1.124 0-1.124-1.499l-2.247 9.739zm-91.768 4.87v-.374zm-1.872 4.495c.749-1.123 1.124-2.622 1.873-4.495zm-5.994 5.992l-.374 1.499c.374 0 2.247-3.371 2.247-3.371-.374 0-1.124.374-1.873 1.873zm89.52 8.24c1.124-2.622 2.247-5.244 3.371-8.24zm-32.212 71.916c-.374 1.498-.374 2.247 0 2.247s4.121-8.615 4.869-8.989c1.499 2.996-4.121 6.368-3.371 10.488 1.124 1.498 7.866-13.859 11.236-19.852 1.873-5.618 1.499-5.618 1.124-7.491 1.499-1.123 3.745-6.742 5.244-7.491 2.996-11.986 7.866-17.23 9.739-28.841.374-.749.749-.749.749-.749.374-3.371 1.499-7.491 2.622-11.237-4.121 10.113-9.364 16.856-13.109 24.346.374-6.742 8.615-16.106 6.368-16.106-3.746 5.244-7.491 18.353-9.739 19.852 0 1.123 1.124 0 1.499 0 0 0 .374.374-.374 2.247-2.996 7.117-3.371 5.993-5.993 9.739v4.495c1.873-4.121 4.12-8.615 5.993-13.109-3.371 14.608-11.236 26.594-16.856 40.453zm28.092-55.435c.749-1.498 1.873-4.495 1.499-4.869zm0 .375v-.374.374zm0 0c-.374.374-.374.749-.374.749s0-.374.374-.749zm-25.096 43.449c2.247-5.244 5.244-10.113 7.866-15.731-2.247 0-4.869 7.866-7.866 15.731zm-5.992 14.608v-.374c1.873-3.746 3.746-8.989 5.993-14.234-3.746 7.491-7.491 14.234-10.862 21.35 1.499-1.499 3.371-2.996 4.869-6.742zm1.498 5.243c-.374 1.499 0 2.247.374 2.247.749 0 2.622-3.746 4.121-7.866-2.247 4.869-4.121 7.117-4.495 5.618zm-13.859 13.859s-.374.374-.374.749zm-25.844 48.318c.749-.749 1.873-2.622 3.371-5.244-.749.374-1.873 1.498-3.371 5.244zm-75.287 111.62l-.374.374c-.749-6.742-1.123-13.484-1.498-20.601.374 15.357-.374 30.34 1.873 38.954 0-2.996.374-4.121.749-4.121s1.498 12.735 2.622 15.357c-1.123-11.611-3.745-28.841-3.371-29.965zM476.665 438.7c-.374.749-1.124 1.124-1.499 1.873 1.124-1.124 1.499-1.873 1.499-1.873zm-159.189 5.243v-.749c-.374-.749-.374-1.873-.749-2.622.374 1.124.374 2.247.749 3.371zm5.993 26.594c-.374-1.124-.749-2.622-1.498-3.371v1.499c-.374 0-1.873-5.244-2.622-6.742 1.498 9.364 2.247 4.869 4.121 8.615zm2.997 13.859s.374 0 .374-.749l-5.244-7.866c.749 2.622 3.745 8.615 4.869 8.615zm1.123 2.996c1.498 2.622 2.996 5.618 4.869 8.24-.374 0-.749.374-1.123.374-.749 0-1.499-1.124-3.745-4.869.374 1.499 3.745 5.618 5.618 8.24l-1.123-1.873c1.123.749 2.622 2.622 4.495 4.121-5.244-7.117-5.618-14.233-8.99-14.233zm97.386 6.368c.374-.374 1.124-.749 1.873-1.499-.374.374-.749.749-1.873 1.499zm-81.654 4.869c1.498 1.873 5.244 5.244 8.615 7.866-3.371-2.622-6.368-7.866-8.615-7.866zm-6.742 2.996c.374.749.749 1.124 1.498 1.873h.374c-.749-.749-1.498-1.124-1.873-1.873zm1.873 1.873c.749.749 1.498 1.124.749-.374zm61.802 8.99l-.749-.374c-.374.374-.374.374.749.374z"/>
  <path fill="#9c5a5a" d="M519.756 295.992c.374-.749.749-2.622 1.498-2.247 0 0 0 .374-.374.749.749 0 1.873 1.498 1.499 1.873.374.374.749 2.996.749 3.371 0 1.498 3.745-1.123 4.495-2.622.374-.749.749.374 1.124.374 0-.749.749-1.124.749-1.873 0 0 .749-1.873 1.124-2.996v-1.873h.374c-.374-.374.374-1.124 0-1.499h.374c0-.749.374-1.498.749-1.873 0-.374.374-.749.374-.749h.374c0-.374 0-1.123.374-1.123h-.374c.374-1.499.749-2.247 1.124-3.371 1.124-2.996 1.873-6.368 2.622-9.364 0-.374-.374-.749-.749-.749l.374-.749c.374-.749-.374-.749 0-1.499 1.124-2.247 1.124-5.618 1.873-8.24.374-1.123.749-2.622 1.499-3.745l.374-1.499c.374-.374.374-.749.374-.749-.749.749-1.124 1.123-1.124 1.873-.374 0-.749-.374-.749 0-.749 1.873-1.124 4.495-2.247 5.244 0 .374-.749.374-1.123 1.498l.374-1.123h-.374c-.749 1.498-1.124 2.996-1.873 4.12h-.374l-.374.749c-1.124.374 0-3.371.374-5.244h-.374l-.374.374h-.374c.749-1.498.749-2.996 1.499-4.495l.374-1.498c0 .374-.374 1.123-.749 1.498.374-1.498 1.124-2.622 1.499-4.12 0-.749-.749-.374-1.124.749l-1.124 2.622h-.374c.374-.749.749-1.873.749-2.622 0-.374-.374.749-.749 0-.374.749-.374 1.873-.749 2.622-.374.374-.749.749-1.124.374-.374 1.873-1.124 3.371-2.247 4.121-.374 0-.749 1.498-.749 2.247-2.622 5.993-3.745 12.361-6.367 17.604 0 .374-.749.749-.749 1.124-1.124 2.622-1.873 6.368-2.622 8.989 0 1.498 1.499 2.996 1.499 2.996 0 .374.749.749 1.124.749zm12.361-41.951c0 .374-.374.749-.374 1.123.374 0 .374-.374.374-1.123zm15.357 195.895l-1.124 2.247c0-.749-.374-.749-.749-.749h-.749c-.374 0-.749 0-.749-.374l-3.745 3.371-.749-1.124h1.499c-.374-1.124-.374-1.499-.749-1.499-.749 0-1.873 2.622-3.371 1.873l.374 1.124c-1.124.374-1.873.374-2.247.374-.749 0-.749-.374-1.124-.374s-1.124 0-1.873.374l-.374 1.499c0 .374 1.873-2.622 2.622-1.124-.749 1.124-1.499 1.873-2.622 2.622s-2.247 1.499-2.996 2.622l.374-3.371c-.374 1.124-1.499-.374-2.996-.374-.374 0-.749 0-1.124.374l1.873.374c0 1.499-1.499 2.247-2.622 2.247s-2.622 0-3.371.749c.374 0 1.123 0 1.123.749-.374.374-.749.749-1.498.749-.374 0-.749-.374-1.124-.374.374-3.371 4.869-2.247 3.746-4.869-1.873 0-3.746 4.495-4.869 3.371l1.124-1.873-.749.374v.374c-.374 1.499-.749-.374-1.499 0 .374-.749.749-1.124.749-1.873h-.374l-.374.374c-1.124.374-1.873-.749-1.873-2.622v1.124c-.374.374-.749 0-.749-.374-.749.749 0 1.499-.749 1.873-.749-1.499.374-2.247.374-4.495-.749 0-1.499 1.499-2.247 1.499-.374 0-.749 0-1.124-.374 1.124-.374 1.499-1.499 2.622-1.499h.749c-1.873-1.124.749-1.873-1.498-2.247v.749c-.749.374-1.124-.374-1.499-.749 1.124-1.499 1.873-1.873 1.873-3.371l-1.873-2.622h.749c-1.124-2.996-.374-6.368-1.499-8.615-.374 0-.749-.374-1.124-.374s-.374.374-.374 1.124c-1.499-1.124 0-3.371.374-4.495l1.873 1.124c-.374-4.12 1.873-8.99.749-12.735l-1.499.374-1.873-.374c4.121.749-2.247 6.368 1.499 5.618 0 1.499-1.499 1.873-2.247 1.873l.749 3.745c-.749.374-2.247-.374-2.247-1.124 0-1.124-1.499-3.745.374-5.244-.374-.374-.374-.374-.749-.374-1.124 0-1.499 0-1.499-1.499 2.622-4.495 1.124-10.113 3.371-13.484-.374.374-.749 1.124-1.124 1.124l-.749-.749 1.873-1.873c0-1.873-2.247-3.371-.749-4.495-1.124-.749-1.873 2.996-2.622 4.121-3.746-2.247 2.622-3.371 0-5.993-1.873-1.124-.749 3.371-2.247 3.371 0 0-.374 0-.749-.374l1.124-2.622c-3.371 1.499 0 4.495-2.996 4.869-.749-1.124.374-3.745 1.124-4.12-.374-.374-1.124.374-1.873.374-.374 0-.749-.374-.749-.749 1.499-1.124-.374-2.247 1.124-3.371l1.124.749c.374-1.124 1.499-3.746 1.124-4.869 2.247 0 2.622 3.746 2.247 4.869 1.499-.749 1.499-2.996 1.499-4.121l-1.124 1.873c.374-2.996-2.622-2.996-1.499-6.367 0-1.124.374-1.499.749-1.499.749 0 1.499.749 2.247.374 0-1.499 0-1.873-.374-1.873 0 0-.374.749-1.499.374.374-2.622 1.499-2.996 1.873-6.368.374 2.247 1.124 2.996.374 4.495h1.499c-.374-2.622-1.499-5.244-2.247-8.615h1.499c-.374-.374.749-6.742 2.622-12.735s2.996-11.612 1.499-11.237c0 .374-1.499 5.244-2.996 9.364l-.374-.374c.374-2.996 2.247-9.739 2.622-11.611-1.873-1.123.374-2.247-1.499-2.996.749-4.495 2.622-6.742 4.869-9.364-6.367 4.12-10.488 10.488-13.109 17.604 0 1.123.374 1.873 1.124 1.123 0-1.498.749-1.873 1.124-1.873.749 0 1.124 0 1.124.749s0 .749-.374.749-1.124-.374-.749 1.498l1.124-1.123c-.749 2.622-.374 3.745.749 5.618-5.244 8.24-2.247 19.103-7.491 26.219l1.499 2.996c-.749 0-1.873 0-1.873 1.499.374-.374.374-1.124.749-1.124l-1.124 5.993 1.124-.374c-1.499 1.873 0 5.618-2.247 7.117.749.374 1.124 1.499 1.873 1.499-2.622 5.993-.374 12.735-3.371 17.604.749-.374 1.124 0 1.499.374 0 .749 0 1.124-.374 1.124s-.749-.749-1.124-.374c2.622.749 1.873 7.117 1.499 14.233s.749 15.357 2.996 16.481c-.374-.749-.374-1.124 0-1.124 3.746 8.989 9.364 16.106 19.852 16.106 1.124 0 2.622 0 3.746-.374-1.499.374-1.499-.749-1.499-1.873v-.374c0 .374 0 .749-.374.749-.749-.749-1.124-1.124-1.499-1.124-.749 0-1.124 1.499-1.873 1.499-.374 0-.749-.374-1.499-1.124l1.873-1.124c-4.495 0-7.117-.374-10.488-4.12l1.873-1.124c-1.499-.374-2.622-2.247-1.124-3.371 1.124 1.873 2.247 2.247 3.371 2.247s2.247-.374 2.247 1.124c-.374.374-.374.374-.374.749 1.124-.374 1.873-1.124 2.996-1.124.749 0 1.124.374 1.499.749l-1.124 1.124c1.124.374 2.622.374 4.121.374s2.996-.374 4.495-.749c-1.124-.749-.374-1.873.749-2.247 1.873.374-.374 1.124.374 1.873.374.374.749.374 1.124.374 1.499 0 3.746-2.996 4.495-3.371-.374.749 4.12 0 1.873 1.873 2.996-1.124 3.745-3.746 5.993-3.746.374 0 1.124 0 1.499.374-.374-1.124 0-2.247.374-2.996l1.124 1.499.374-1.873c.374-.374.749-.374 1.124-.374 1.124 0 1.873.374 2.622.374s1.124 0 1.499-.374c-.374 0-.749 0-1.124-.374-.749-1.499 2.996-4.12 1.124-5.618zm79.032-65.173l-.374 1.124c0-.374-1.124-1.124-1.499 0-.749 2.247 1.499.749 1.499 1.873-4.495-.749-2.996 5.993-7.117 5.993h-1.124c-5.993 8.24-13.109 17.979-20.226 23.971h.374c0 1.124-2.247 2.247-2.996 1.873l1.124 1.499-.749.749c-1.124 0-2.247-3.746-3.745-3.746-.374 0-.749.374-1.124.749 2.247-.749 2.996 2.247 1.873 3.371.374 0 2.622 1.873 2.996 1.499l2.996-.374c-2.247-1.873 1.124-3.745 2.622-4.12v.374c-.374.374-.374.374 0 .374.374 1.124.374 2.622-1.499 2.622-.749 1.499-1.873 2.622-2.996 3.371.749.374 1.499.374 2.622.374.374 0 1.124 0 1.873-.749-1.873.749 0-1.499-1.873-1.124.374-1.873 4.495-1.124 5.993-3.746-.749.749-1.498-.374-1.123-1.124 1.873-.749 3.745-3.371 5.244-4.869-.374 0-.749-.374-.749-.749 1.499-.749 1.873-1.124 4.121-1.499 6.742-3.746 11.236-13.109 17.604-15.731 2.622-.374 0 2.622 1.124 2.622 1.873-7.491-.374-11.986-4.869-14.608zm-120.234 8.989c.374-.374-.374-1.873.374-2.996-.749 1.124-2.247 2.247-.374 2.996zm5.993 1.124l.749.374c-.374-.374-.374-.749-.749-.374zm.749.375s0 .374.374.374v-.374zm-.749 3.745l.374-1.873c1.124.374 1.873.374 1.499 1.499.374 0 0-1.499 0-1.873l-.374.374-.374-1.499c-.749 1.873-4.12 2.622-1.123 3.371zm-.749.749l1.123 2.247c.374-.749.374-2.622-1.123-2.247zm-2.247 2.248c0 .374 0 .749.374 1.124 0-.374.374-.374.374-.374-.374 0-.749-.374-.749-.749zm1.123 2.622c1.124-1.499.374-1.499-.374-1.873.374.374 0 1.499.374 1.873zm.75 7.491c-.374.374-.749.749-1.124.749-.749 0 .374-2.996-.374-3.746-1.124 2.247 0 5.993-.374 7.117l.374-.374.749 5.244c-.374-3.746 1.499-7.117.749-8.989zm100.382 3.745c-.374 0-.749.374-1.499 1.124.374 0 1.124 0 1.499-1.124zm-16.481 3.745l-.374-.374s0 .374.374.374zm-3.371 3.372c0-.749 0-1.124-.749-1.124-.374 0-1.124.374-1.499 1.124.374-.374.749-.749 1.124-.749.749 0 1.124.374 1.124.749zm0 2.622c0-.749 0-.749-.374-.749s-1.873 1.499-2.247 1.124c-1.499-2.247 2.247-.374 1.499-2.622-.374-.374-.749-.374-1.124-.374-1.499 0-3.746 1.873-5.244 1.873-.749 1.499-.374 1.873 0 2.996-.374-.374-.749-.374-1.124-.374h-2.248c-1.124 2.996-4.121 2.247-5.618 4.495.374-.374 1.873-.749 1.124-.374l-1.124.749v.374h.374c-.374 1.124-1.124 1.873-1.873 2.622 2.622-1.124 5.993-.749 8.24-1.124.374 2.622-5.244.749-3.745 2.247 2.622.374 4.495-2.622 5.993-1.873 0-.749-1.499-.374-1.124-1.499 1.499-4.495 5.993-4.495 8.615-7.491zm2.247.749c-1.499.749-2.247 1.499-2.996 2.622 1.873-.749 3.745-1.873 5.618-2.996-.374-.374-1.124-.374-1.499-.374-.749 0-1.124 0-1.124.749zm-5.992 4.869c1.124 0 1.873-1.124 2.996-2.247l-4.121 1.873c.374.374.749.374 1.124.374zm-2.998 1.124c.374 0 1.124.374 1.873.374v-1.873l-3.745 2.247c.749-.374 1.498-.749 1.873-.749zm-9.737 0v-.374zm-3.746 4.12c.749-.374 1.499-.749 1.873-1.124-.374 0-1.123.374-1.873 1.124zm0 .749h1.499l-1.499-.749c-.374.374-1.124.374-1.499.749.749-.374 1.873.374 1.124 1.124l-1.873-.374-.374 3.746c.374-2.622 4.495-1.873 2.622-4.495zm-2.997.374l-1.499-.749c-2.247 1.124 0 1.499 0 2.247.374-.374 1.124-.749 1.499-1.499zm-1.498 1.499l-1.124 1.124c.749-.374 1.124-.749 1.124-1.124zm-2.997 1.123c-.374-.374-1.499.374-1.873 0 1.124 2.247-2.247 1.873.749 3.745.374-.374 1.123-.749 1.873-1.499l-2.247 1.124c-.374-1.873 2.247-1.873 1.499-3.371zm10.488.75c-.374 0-.749 0-1.124.374.374.749-.374 1.124.374 1.873-1.124.374-1.499-.374-2.247-.374-.374 1.873-2.996 2.996-3.371 4.495l1.124-.749c2.622-.749 4.12-4.12 7.117-3.745-.749-.749-1.124-1.873-1.873-1.873zm-11.611 2.996c-.374.374-.749.749-1.499 1.124.374 0 .749-.374 1.499-1.124zm-4.12 1.124l.374 2.247c.749-1.499 1.499-1.873 2.247-2.247-.374 0-.749-.749-1.498-.749-.374 0-.749.374-1.124.749zm-4.495.749c-.749.749-1.499 1.499-2.622 2.247 1.498 0 1.873-.749 2.622-2.247zm12.735 2.247c-.749 0-1.499 0-1.124 1.873.374-1.499 2.996-.749 3.745-1.873l-.374-1.499c-.374 1.499-1.499 1.499-2.247 1.499zm-11.611 1.873c2.247-1.499-2.247-.749-.374-1.873.374-.749-2.622 1.873-2.247 2.996.749 0 1.124-1.499 1.873-1.499.374 0 .374 0 .749.374zm-3.746-1.498c-.749.749-1.499 1.499-1.499 1.873v-.374s-1.124 2.247-1.499 4.12c1.124-2.247 5.244-3.371 2.996-5.618zm8.241 5.619l2.247-1.499-2.996 1.499zm-4.495 0c.374.374 1.124 2.996-.749 4.121 1.498.374 1.123-1.124 2.247-1.499l.374-2.247-.749.749zm-7.866 1.497v.374zm3.745 3.746c-.374 0-1.873.374-2.247 0 0 .749 0 1.873.749 1.873 1.873-1.124 4.869-2.622 4.12-4.869-2.996 0-2.247 1.499-2.622 2.996zm-4.494 0c-2.622 2.247-4.869 2.622-7.491 3.371.749.374 1.124 0 2.247 0-1.499.749-3.371 2.996-5.618 4.12.374.374.749.374 1.124.374 1.124 0 1.873-.749 2.996-1.124-.374 0-1.124-.374-.374-1.124 2.622.374 2.622-2.247 5.244-1.873-.374.374-1.124.749-1.499 1.499.749 1.124 1.873-1.873 3.371-1.873l.749.749c1.124-2.996-2.996-1.124-.749-4.121zm-8.241 2.622c-1.498 1.124-2.996 2.622-4.869 3.371h2.623zm1.499 4.121c.374 0 .749 0 1.124-.374-.374 0-.749.374-1.124.374zM525 467.915c1.124 0 1.873.374 2.622.374 0 1.124 1.873 1.499 2.247 2.247-.374-2.247 2.996-1.499 4.869-2.247v-2.247h-1.124c-2.247 0-5.244 1.499-8.615 1.873zm1.499 2.622c-1.873 0-2.996-1.873-4.12-1.873-.374 0-.749 0-1.124.374 3.371 1.499-.374.749 1.873 2.622 1.873-.374 3.371-.749 4.869-1.499-.749.374-1.124.374-1.499.374zm-6.743-1.498c-1.124.374 0 .749.374.749 0-.374 0-.749-.374-.749zm1.874 2.996c.374 0 1.124 0 1.499-.374z"/>
  <path fill="#b95657" d="M673.484 369.031c-.374.374-.749.374-.749.374-.374 0 .374-1.873-1.124-1.124.374-2.622 4.495-2.622 5.993-5.618-.374 0-.749-.749-.749-1.498 2.247-1.123 4.869-4.495 6.742-5.993-.374 0-.374-.374-.749-.749 1.499-.374 2.247-.749 3.371-.749h1.124c2.247 0 4.12 0 5.618 1.123.749.749 1.124 1.499.749 2.622 0 .749-.374 1.123-1.124 3.371-.374.374-.749.374-.749.374-1.124 0-.749-2.247-1.499-1.499 2.247 4.869 5.618 10.488 11.611 10.488v-1.498c.374 0 1.873.374 1.499-1.499 0-.749 0-1.123-.374-1.123-.749 0-1.499 1.498-1.873.374 2.247-1.498 1.873-4.12 1.123-6.742s-1.123-4.121.749-6.742c-1.124-5.618-4.869-8.24-10.488-8.24-2.247 0-4.869.749-7.117 1.873-5.993 2.996-11.236 9.364-15.731 13.858h.749c-.374 1.498-2.996 3.745-3.745 2.996l1.124 1.873c-.374.749-.749 1.123-1.124 1.123-1.124 0-2.247-3.371-3.746-3.371-.374 0-.749.374-1.498 1.498.374-.374 1.123-.374 1.498-.374 1.499 0 1.873 2.622.749 3.745.374 0 1.873.749 2.996.749.374 0 .374 0 .749-.374l2.996-1.124c-2.247-1.873 1.499-4.869 2.996-5.618.374 0 .374.374.374.374.374 1.498.374 3.371-1.873 3.745-.749 1.873-2.247 3.746-3.371 5.244 1.873 0 3.371 0 4.869-1.873zm12.36-12.36c-.374 0-1.124.374-1.499.749.374.374.749.374 1.499-.749zm134.093 6.367c-10.488.749-19.852 5.618-28.841 11.612-.749.749-1.124 1.873.374 1.498.749-1.123 1.873-1.498 2.247-1.498.749 0 1.124.374.374 1.498-.374.749-.749.749-1.123.749s0-1.499-1.499 1.123l1.873-.749c-2.622 2.247-3.745 3.745-4.12 6.368-11.986 5.993-19.103 19.103-29.965 23.223l-1.498 4.121c-.374-.374-.749-.749-1.499-.749-.374 0-.749.374-1.498 1.124.749-.374 1.498-1.124 1.873-.749l-6.742 5.618h1.499c-2.996 1.124-5.244 5.618-8.99 5.993.374.374-.749 1.873 0 2.622-7.866 3.745-13.109 11.986-20.226 13.858.749.374.749 1.124.749 1.499-.749.749-1.124.749-1.124.749-.749 0-.374-.749-.749-1.124 1.124 2.622-6.742 7.866-14.983 12.735l-11.986 6.742c-3.371 1.873-5.993 3.371-6.742 4.495.749 0 1.498-.374 1.498 0-10.862 6.742-22.099 11.986-35.209 11.986 2.996.374.374 2.996 2.247 3.745 2.247-.749-2.622-1.499.374-1.873 1.124.749 1.499 1.124 1.873 1.124 1.124 0 1.499-1.499 2.996-1.499.374 0 .749 0 1.498.374l-1.873 1.873c4.869-1.499 10.488-3.746 16.106-5.993v2.247c1.124-1.124 2.996-2.247 4.121-2.247.749 0 1.124.374 1.499.749-5.618 2.247-5.993 6.368-9.739 6.368h-1.124c.374-.749.374-.374-.374-.749-1.124 2.996-5.618 4.121-8.24 4.121l1.499-1.499c-1.873.374-3.746.374-5.993.374-4.121 0-8.24-.749-11.986-1.873.749.749.374 1.499-.374 1.499s-1.873-.374-2.996-1.124c-1.499-.749-1.499-1.124-1.124-1.124s2.247.374 1.499-.374c-.374-1.499-2.247-2.996-4.495-4.121s-4.495-3.371-4.869-4.869c.374.374-.374-1.499-.374-2.622-.374-.749 0-1.499 0-1.499.374 0 .749.374 1.124 1.124-1.499-5.244-5.244-8.99-2.996-12.735-.749-.374-2.247-1.873-2.622-3.371h1.873l-1.124-1.873c0-3.371 2.622-4.869 2.622-7.491-.374.374-.374.749-1.124.749-1.499-.374-1.124-7.117-3.371-5.993l.749 2.996c-1.124-1.124-1.124 2.996-2.247 1.873 0 2.996.374 5.993.749 8.615l-1.499.374.749-2.247c-.374-.374-.749-.374-1.124-.374-1.499 0 1.124 4.869 0 7.491h1.124c-.374 3.745 0 4.869-.374 5.618 0 .749-.374 1.124 0 4.869l2.247 1.499c.374.374-3.745-5.618-1.498-5.993 1.873 4.121 3.745 10.488 8.615 13.484l-4.495-1.124c.749.374 1.124 1.499 1.873 2.996.749 1.873 1.499 4.12 4.12 5.993-1.124-1.499-2.247-2.622-2.996-4.121 2.247.374 4.869 2.996 8.24 4.869 2.996 1.873 6.742 2.996 9.739 2.996-1.499-.374-2.996-.749-2.996-1.873.749 0 1.873 0 3.371.749 1.124 0 2.622.374 3.371.749-.374 1.124-1.873 1.499-3.745 1.499-1.124 0-2.247 0-3.371-.374-2.247-.749-4.495-1.124-5.618-1.124-.749 0-.749 0-.749.749 2.247 1.499 4.869 1.499 7.491 1.499h2.622c2.996-.749 5.244-.749 7.117-.749-.749.749-1.873 1.124-2.996 1.873 1.124-.374 2.247-.374 2.996-.749h-.749c.749-.749 1.499-.749 2.622-.749h1.124c.749 0 1.873 0 2.622-.374l-1.499 2.247 4.495-.749-.374-.374c3.371-1.124 5.993-2.247 8.99-2.996l8.24-2.622-3.371.749c.374-.374 1.873-1.124 3.371-1.499-.374-.374-.749-.374-1.124-.374-1.124 0-3.371 1.124-3.371.374 4.869-1.873 5.993-1.124 11.236-2.622 0-.749-4.495-.749-1.124-3.371.374 1.499 4.121 0 2.247 2.996 2.622-2.996 2.996-.374 4.495-2.996-.374 0-.749 0-1.124.374-1.124-.374.749-1.873 1.499-2.622 1.124.374 1.873.374 2.996.374.749 0 1.873 0 2.996-.749l3.745-4.121c4.495-2.996 9.739-5.244 12.361-8.24 0-.749 0-1.873-.374-1.873s-.749.374-1.499.749c1.124-2.247 4.12-2.996 6.742-3.745l-.749 2.622c5.244-4.495 12.735-7.491 16.106-12.361l-1.499-.374.374-.374-1.124-1.499c2.247 3.371-8.99 4.869-5.618 6.742-.749.749-1.499.749-2.247.749s-1.123-.374-1.498-.749l-4.121 4.495c-.749-.374-.749-2.622-.374-2.996 1.873-1.124 4.12-4.869 6.742-4.869 1.124-1.873-2.247-.374.749-3.371 6.742-2.622 11.986-9.364 16.856-11.236-.374 0-1.124.374-1.124.374-.374 0-.374-.374-.374-1.124l3.371-.749c2.247-2.247 1.873-4.869 4.12-5.244 0-1.124-4.495 2.247-6.368 2.996-.374-4.869 5.618-2.247 5.993-6.368-.374-2.247-3.371 2.247-4.869 2.247 0 0-.374-.374-.374-1.124l3.371-1.873c-3.371-.749-4.495 3.371-5.993 3.371-.374 0-.749 0-1.124-.374.374-1.499 4.12-3.746 4.869-3.371.374-1.499-2.996 0-1.873-2.247 2.622-.374 1.873-2.622 4.12-2.622l.374 1.873c1.124-1.124 4.869-3.371 5.993-4.869 1.499 1.499-1.499 5.618-2.996 6.367 1.873 0 3.745-2.247 5.244-3.371l-2.996 1.499c3.371-2.996.749-4.869 4.869-7.491.749-.749 1.499-1.124 1.873-1.124.749 0 .374 1.873 1.873 1.499 1.499-1.873 1.499-2.247 1.499-2.247-.374 0-1.124.374-1.873-.374 2.622-2.622 3.745-2.247 7.491-5.618-1.873 2.247-1.499 3.746-4.12 4.869l1.873.749c2.247-2.996 2.996-6.367 5.618-10.113l1.124.749c0-.749 7.117-6.742 13.859-11.986 6.742-5.993 13.484-10.862 11.611-11.236.374.374-4.495 3.371-9.364 6.742-.374.749-1.124 1.124-1.873 1.499v-.749c2.996-2.996 10.862-8.989 13.109-10.862-.749-1.873 2.247-1.873 1.124-3.745 4.495-4.121 8.99-5.244 13.484-6.742zm-157.315 5.618c.374 0 .374 0 .749.374 0-.749-.374-1.124-.749-1.124-.749 0-1.873 1.124-2.247 2.247.749-1.123 1.499-1.498 2.247-1.498zm10.487-.749s-.374 0-.374.374zm-19.852 20.601v-.374h.749c.749 2.622-5.244 4.495-3.371 5.244 2.622-1.499 4.121-5.993 5.618-5.993 0-.749-1.499.374-1.124-1.499 1.499-2.247 1.873-1.499 3.745-2.247l-.374-2.247c1.499.749 2.622-1.873 4.12-4.495-2.622 2.622-5.244 5.244-7.491 8.615.749-5.244 5.618-8.24 7.866-13.109v-1.123c-.749 0-1.873 2.996-2.622 2.996-1.873-2.247 2.622-1.499 1.124-3.746-1.124-1.873-4.869 3.746-6.742 5.244-.749 1.873-.374 2.247.374 3.371-1.124-.374-2.622 1.499-3.745 1.499-.749 4.12-3.371 5.244-4.495 8.615.374-.374.749-1.124.374-.374l-.749 1.499-.374.374h.374c0 1.499-.374 2.622-1.124 4.12 2.247-2.996 5.618-4.495 7.866-6.367zm15.358-17.604c-1.499 0-2.622.374-2.996 1.498-1.124 1.124-2.247 2.622-2.996 4.495 2.247-1.873 4.121-3.746 5.993-5.993zm-22.099 19.477c0-.374 0-.749.374-1.124-.374.374-.374 1.124-.374 1.124zm139.336 0v-.374zm-1.123.749l.374-.374c0 .374 0 .374-.374.374zm-141.21 6.743c.749-.749 1.124-1.873 1.873-2.996-.749 1.124-1.498 1.873-1.873 2.996zm.375 2.996l-2.247.749.749 4.495c-.374-3.371 4.121-5.618 1.499-7.117l1.498-1.124-1.873.374v-.374l-1.499 2.247c.374-.374.749-.749 1.124-.749s.749.374.749 1.499zm6.742 1.124c-1.124 0-1.499-1.124-2.247-1.124 0 0-.749.374-1.123 1.499.374.749 0 1.499.749 1.873-.749 1.124-1.499.374-2.247 1.124.374 2.622-1.873 5.618-1.124 7.866 0-1.124.374-1.124.749-1.499 1.873-3.371 2.247-8.24 5.244-9.739zm-10.862 2.996l1.124-3.371-1.873.374c-1.873 3.371.749 1.873.749 2.996zm0 0l-.749 2.247c.749-1.124.749-1.873.749-2.247zm-2.248 8.615c-1.124-1.499 1.124-3.746 0-4.869-.749 0-1.499 1.499-2.247 1.873 2.247 1.499-1.124 4.12 2.622 3.745l1.124-3.745zm6.368 4.12c-.749-1.499 1.873-3.371 2.247-5.244l-.749-.749c.374 4.121-4.12 3.371-1.499 5.993zm123.23-4.869h-.374c-1.124.749-3.745 1.124-2.996 2.996 1.123-.374 1.873-1.873 3.371-2.996zM637.9 414.353l-.749 1.873c.374-.374.749-.749.749-1.873zm-3.37 4.869l1.499 1.873c0-2.247.749-3.745 1.124-4.869-.749.749-1.873 0-2.622 2.996zm133.343 1.124l.374.749c.374-.749.374-.749-.374-.749zm0 1.498l.749-.749h-.374s0 .374-.374.749zm-4.12 2.996l2.622-1.873c.374 1.124.749 1.499-.749 2.622.749 0 1.499-1.499 2.247-2.247l-.749.374c0-.749.749-1.499.749-1.873-1.873 1.499-5.618.374-4.12 2.996zm-122.106-.749l-1.873 4.12 1.124-1.124zm-10.488.375c0 1.873-.749 3.745-.749 5.618 1.124-1.873.749-2.996.749-5.618zm131.47.374l-1.499 3.371c1.124-.749 2.996-2.622 1.499-3.371zm-129.597 1.499v-.374zm0 5.244c.374-.749-.374-3.745 1.124-3.745.374-1.124.374-1.499 0-1.499 0 0-.749.749-1.124.749 0 0-.374-.374 0-.749-.374 1.499-.749 4.869 0 5.244zm124.353-4.12c1.873-.374-.749 1.499-.749 2.247 3.371-1.499.374-1.873 1.873-3.371-.374.374-1.124.749-1.124 1.124zm-125.477 11.611c-1.124-3.371 1.873-8.989-1.499-8.615-.374 1.499-.374 2.996 0 3.371l-.374-.374s.749 3.371 1.873 5.618zm6.742-7.117l-1.499-.374c.374.374 2.622 1.873 1.873 4.869 1.499-1.499.374-2.247 1.124-3.746l-1.499-2.247zm104.877 8.99h.374l-4.495 5.244c3.371-3.746 8.24-5.618 10.113-8.24-.749 0-1.124.374-1.124.374-1.873 0 2.622-3.371 2.996-4.495-3.371 2.247-7.117 6.742-7.866 7.117zm-107.124 2.622c.374.374 1.124 1.499 1.873.374.374-2.622 1.124-7.117-1.124-8.24-2.247 2.996-.374 3.745.374 5.244-.374.749-.374 2.622-1.124 2.622zm-4.121-1.873c0 .374.374.749.374.749s-.374-.374-.374-.749zm4.121 1.873c-.374-.374-.374-.374-.749-.374.374.374.374.374.749.374zm1.872 15.357c-.374.749-.749 1.124-1.124.374.749-3.371-1.499-5.244-.374-8.24l1.124 2.996c1.499-.749-2.247-5.618 1.124-5.618-.749-1.124-1.124-1.124-1.499-1.124s-1.124.749-1.499.749c-.374 0-.749-.374-1.124-1.873.374 4.869-.374 8.24 0 12.361.374-1.124 0-1.873.374-3.371.374 2.622 1.873 6.368 3.371 9.364 1.124-2.247-.374-3.746-.374-5.618zm-.749 8.614c-.374-1.499-.374-2.622-.374-4.121-1.124-1.124-2.247-2.996-2.996-4.495.749 2.996 1.873 5.993 3.371 8.615zm9.739 10.114c-1.124-.749-1.873-1.499-2.622-2.622 1.124-.749-.374-2.622.374-3.746-.374.374-.374.374-.749.374-1.499 0-2.622-3.746-3.745-5.244h-2.247c-.749 2.622 3.745 8.615 8.99 11.236zm0-3.746c3.371 1.873 2.622 5.618 5.993 5.244-4.12-2.996 1.124-.749-1.124-3.746.749 0 1.124.374 1.499.374l-1.499-.374c-1.873 0-3.371-.749-4.869-1.499z"/>
  <path fill="#d75354" d="M921.314 70.881c.374 0 .374 0 .749.374 0-.374 0-1.124.749-2.247 6.742-6.368.749-6.368 7.866-13.484l-1.124 5.244c4.12-10.113 11.986-23.597 20.975-33.71l.374 2.247c2.622-4.495 7.866-9.364 9.364-8.615-10.862 10.488-8.615 15.731-15.731 22.099 0-1.498 0-.749-.749 0-1.124 3.745-3.745 10.488-8.24 16.48l.374-2.996c-5.993 10.113-11.986 21.35-16.106 31.463.374-.749.749-.749 1.124-.749s0 2.622-1.499 5.993c-.749 1.873-1.499 2.622-1.499 2.622-.374 0 1.124-4.121-.374-2.247-4.12 2.996-6.368 16.856-8.615 21.725.374-1.499-3.371 6.368-4.12 6.368-.374 0-.374-.749.374-2.996-4.869 10.862-5.244 19.852-10.113 26.219.374 1.499.374 4.495-.374 7.491l-1.873-.749v4.121c-2.622 7.491-7.491 10.113-8.615 18.353.374-1.499 1.499-4.495 2.247-4.495 1.499 1.124-2.996 15.731 0 13.484l.749-6.742c.749 2.622 2.996-5.618 3.371-3.745l5.244-17.23 1.499.374-2.247 3.745c.374 1.124.374 1.499.749 1.499 1.124 0 2.622-10.862 5.618-14.234l-1.124-.374c6.368-14.234 2.996-5.618 8.615-17.23l.374-4.12c0-.749-2.622 11.237-4.495 10.488 1.873-8.24 6.368-18.353 8.615-26.969v6.742c.374-3.371 5.244-7.117 7.866-14.608l-3.745 6.368c-.374-6.742 8.24-19.103 11.236-28.466-1.124 2.247-2.247 4.869-3.371 4.869.374-2.622 3.371-7.866 5.618-10.862 2.247 2.622-8.615 21.35-5.618 20.226 5.244-10.113 6.367-19.852 10.113-25.47l-1.123 5.618 2.247-5.244-1.124 1.499c0-2.622 3.745-5.993 5.244-9.739l.374 3.371 3.745-6.742-.749.749c6.368-11.611 11.611-17.604 20.601-26.593-.749.749-1.499 1.123-2.247 1.873l-2.622 2.247c0-.749 2.247-3.371 4.495-5.244-1.499 0-6.367 5.993-6.742 4.869 3.371-3.745 5.993-5.618 8.24-7.117s4.869-2.622 8.615-4.495c.374-1.124-6.368.374-.374-3.745.374 1.498 5.244 0 2.247 2.996 2.247-1.499 2.996-1.499 3.745-1.499s1.499 0 2.622-1.123c-.374.374-.749.374-1.124 0-1.499-.749 1.124-1.123 2.996-1.123 1.124.749 1.873 1.498 2.996 1.873s1.499 1.498 2.996 1.873c.374.374 1.124.374 1.873.749 1.123.374 1.498.749 1.498 2.247 1.499 2.247 2.622 6.742 2.622 11.236s-.374 9.364-.749 13.484c.374.749.374 1.873.749 1.873s.749-.749 1.124-3.371c.749 4.495-1.873 10.862-3.745 15.357-.374-1.498-.374-2.996-.749-4.495-2.622 13.859-11.236 29.591-14.608 42.7l1.873-1.873c-4.12 11.986-11.236 22.474-13.109 29.591l1.873-2.247c.749 0-3.745 8.989-4.495 11.237 4.869-7.491 8.99-19.852 10.113-21.725l-.374.374c1.873-5.618 4.12-10.862 5.993-16.48l1.499 1.123c-2.996-2.622 10.113-20.975 5.244-19.102 1.498-4.495 3.745-5.993 4.495-4.869 1.124-4.495 1.873-8.615 2.622-13.109 1.124-1.124 1.873 2.247 1.499 3.745-1.124 4.869-2.622 13.484-5.993 17.604-.374 1.124 0 1.499 0 1.499.374 0 .749-.374 1.123-.374s.374.749-1.123 4.869c-7.866 14.608-14.234 32.961-20.975 42.7 1.124-1.124 1.873-2.622 2.247-2.622v1.498l-4.869 6.368c-2.622 5.993-2.622 10.113-5.618 13.859 0 1.873 6.368-9.739 8.99-13.109.749 7.491-8.24 10.862-8.99 18.353.749 3.371 5.993-10.113 7.491-10.113.374 0 .374.374.374 1.124l-4.869 7.866c5.618-4.12 6.367-13.858 10.113-14.608-.749 3.371-5.993 11.611-6.742 12.361-.749 1.873 1.498-.749 2.247-.749.374 0 .374.374 0 1.873-3.371 3.745-2.996 7.117-5.993 10.113l-.374-2.996c-1.873 3.371-7.117 11.612-8.99 15.731-1.873-.749 2.622-10.862 4.869-14.608-2.996 2.622-5.993 8.989-7.866 12.361l4.12-5.618c-4.869 8.989-1.124 8.24-7.866 18.353-1.873 3.371-2.622 4.121-3.371 4.121-.374 0-.374-1.123-1.124-1.123-.374 0-.374 0-.749.374-2.247 4.495-2.622 5.618-2.622 5.618.374 0 1.499-1.873 2.622-1.499-4.495 7.491-6.367 8.615-12.361 18.353 2.996-5.618 2.996-7.866 7.117-13.109l-2.622 1.124c-4.12 7.866-5.993 14.234-10.862 23.971h-1.499c-.374 1.124-12.361 19.103-25.096 35.583s-24.721 31.463-22.474 30.714c-.374-.374 8.99-10.113 17.604-21.35l3.371-3.745v.749c-7.866 11.236-16.856 22.099-26.219 32.587 0 0 .749-.374 1.499-1.498 1.124 1.873-4.12 5.244-2.247 6.368-8.99 10.862-16.106 16.856-23.971 22.848 17.604-10.862 34.459-26.969 50.566-46.071 1.124-1.498 1.873-2.996 1.124-2.996 0 0-.749.374-1.499 1.123-1.873 3.371-4.12 4.869-4.869 4.869-.374 0-.374-.749.374-2.247 1.123-2.247 1.873-2.247 1.873-2.247.749 0 .374 1.123 2.996-3.371l-2.996 2.622c4.869-5.993 6.742-9.364 8.24-14.233 20.601-22.474 34.834-53.188 51.689-73.414l2.622-8.989c1.123 0 2.622 0 4.495-4.12-1.123 1.123-2.622 3.745-2.622 2.996 3.745-5.993 6.742-11.986 10.488-17.604l-2.247 1.123c4.495-4.869 8.24-16.106 13.109-21.35-.749-.374 1.124-4.495 0-4.495 10.862-17.23 17.23-38.58 25.47-53.562-.374.374-.374.749-.749.749s-.374-1.499-.374-1.873c.749-2.622 1.124-3.371 1.124-3.371.374 0 .374 1.873 1.124 1.124-1.124-1.124.749-7.117 2.622-15.357 1.873-8.615 5.618-19.477 5.993-31.463 0-6.367-.374-12.735-2.622-18.353-1.873-6.367-7.117-10.862-11.986-13.858-2.622-.749-5.244-1.873-7.491-2.247s-4.495-.749-6.367-.749c-3.745 0-6.742.749-7.866 1.498.749-.374 1.499-.374 2.247-.374s1.124 0 .749.374c-28.092 4.869-50.566 46.82-61.053 70.792 1.498-2.996 2.247-3.745 2.996-3.745zm2.997-.748c.374-1.124.374-1.499 0-1.499s-1.499 2.247-2.247 2.622h.749c.374 0 .749 0 1.499-1.124zm-8.241 8.24h.374l1.499-3.745zm5.244-2.997c-1.873 2.622-2.622 3.371-2.996 3.371s.374-1.873 0-1.873-.749.374-1.873 1.499c-1.873 4.869-4.12 8.99-5.993 13.484 4.495-10.488 8.615-9.364 10.862-16.481zm-19.477 42.325c3.371-4.869 8.615-18.728 13.859-29.965l-3.745 7.117c-.749-1.499-4.12 3.745-5.244 3.745 1.873 1.124-4.12 10.488-5.993 16.106zm8.615-25.844v.374zm-13.858 43.823l6.742-19.477-4.12 7.491zm-13.11 23.598c.749 0 1.873-1.873 2.247-1.873s.374 1.124-.374 4.869c3.371-10.488 6.742-17.979 10.488-26.219-1.499 2.247-1.873 2.996-3.745 6.368 2.247-5.993 4.495-14.608 7.117-21.725-2.622 2.622-3.745 7.117-5.618 11.611.374-.749.749-1.123 1.124-1.123 0 0 .374.374 0 1.873-4.12 6.368-3.745 11.237-7.491 17.604l1.873-6.742c-2.247.374-3.371 13.858-5.993 12.361-.374 2.247 0 2.996.374 2.996zm10.112-26.969c-.374.749-1.124 1.873-1.499 2.996.749-1.123 1.124-1.873 1.499-2.996zm72.291 7.492l.374-.374c0-.374.374-1.123.749-1.873zm-9.739 16.48c-.374.749-.749.749-.749.749-.374 0 1.873-4.12 2.247-5.244-4.869 6.368-1.124 3.371-2.996 7.866.749-1.124 1.498-2.247 1.498-3.371zm-7.491 10.863l2.247-7.117c-1.498 2.247-4.495 7.866-2.247 7.117zm-70.042 6.741c1.123-1.499 2.622-5.618 3.371-5.993 0-1.123 0-2.247-.749-2.247l-.749.749c-2.622 6.742-5.993 16.855-4.495 19.477 4.12-6.368 2.622-8.24 2.622-11.986zm3.37-5.992c0 .374.374.749.374.749 0-.749 0-1.123-.374-.749zm64.799 1.123l-3.745 5.993c-1.123-.749-1.498-1.123.749-4.869-.749.749-2.247 4.121-2.996 6.368l.749-1.498c0 1.123-.749 2.622-1.499 4.12 3.371-4.869 8.615-7.491 6.742-10.113zm-64.799 20.601l.374.749s1.124-7.117 1.499-12.361c-1.499 7.866-7.491 19.852-3.371 19.478.749-3.746 1.498-6.742 1.498-7.866zm57.683-8.615c0-.374.374-1.123.374-1.873 0 .749-.374 1.123-.749 1.498zm.749.374l-.749-.374c-.374 1.123-.374 1.498.749.374zm-68.17 13.485h1.499c0-.374-1.873-3.745.374-10.488-1.873 3.371-1.123 4.869-2.622 8.24l.374 5.618zm73.414-10.488c-1.498 1.499-2.996 5.993-5.244 8.615 2.247-2.622 6.368-6.742 5.244-8.615zm-71.167 21.725s1.124-1.873 1.499-1.873c0 0 .374 0 .374.374 1.124-3.745 2.247-9.364 1.873-10.113-1.124 1.873-1.499 8.24-3.371 8.615-.749 2.247-.749 2.996-.374 2.996zm5.618-8.24l.374-.374c-.374 0-.374 0-.374.374zm0 0c-1.873 3.745-2.247 6.742-3.371 11.986zm-12.36 7.865l-2.622 7.866 4.12-10.113zm8.615-1.124c-.374 0-.374.374-.374.749.374-.374.374-.749.374-.749zm-.749 2.248c.374-.749.374-1.123.374-1.498-.749 1.498-.749 2.247-.374 1.498zm-4.495 14.982L870 218.833c-.749 4.869-1.873 7.866-2.996 10.488 1.123-1.873 2.247-.374 4.12-7.491zm49.442 5.618h.749c.374-.749 0-.749-.749 0zm-60.305 1.125c0 3.745-3.745 8.615-4.495 12.735l.749 2.247c.749-9.739 5.618-10.113 3.745-14.983zm5.62 4.494l1.124-3.746c-.374.749-.749 1.873-1.124 3.746zm-.375 1.124c0-.374.374-.749.374-1.124-.374.374-.374.749-.374 1.124zm-1.124 11.985c.749-.374 2.247-4.12 2.622-5.244-1.499-1.873 1.873-7.117 0-7.117-.374 0-.749 0-1.499.374-.749 2.247-1.498 4.869-2.247 8.615l2.622-7.117c.749 2.622-2.622 8.615-1.498 10.488zm-14.608 23.224c.374 0 1.124-.749 2.247-3.746-.374-1.498.374-4.121-.749-3.746 1.124-2.996 1.873-2.247 2.996-4.12 0-5.993 3.371-13.858 3.371-18.353-.374 1.873-.749 2.622-1.123 4.121-3.371 7.866-4.869 19.478-8.615 25.096.749-.749 1.123.749 1.873.749zm17.23-28.467c.374.374.374.374.374.749 0-.749 0-.749-.374-.749zm-6.368 14.607l1.499-5.244c-1.124 2.996-1.499 4.495-1.499 5.244zm46.821-3.37c0-.374 0-.374.374-.749 0 .374-.374.374-.374.749zm-52.065 17.23c-.374 0-.374-.749 0-2.622l2.622-2.996v-9.739c-.374 7.491-5.618 14.608-2.996 16.856l-1.873 3.371 1.873-1.498c.749-1.873 1.124-3.371 1.873-4.869-.374.749-1.123 1.498-1.498 1.498zm5.244-7.867c2.996-7.866 0-3.745 0-5.993l-1.873 7.491zm-5.618 11.237v.749-.374zm-2.622 8.24c.749-2.247 1.873-4.495 2.622-7.491-1.124 2.247-1.873 4.495-2.622 7.491zm-20.975 62.553c0 1.498 0 1.873.374 1.873s1.873-7.491 2.622-7.866c2.247 2.247-2.622 5.618-1.123 8.989 1.873 1.123 4.869-12.361 7.491-17.604.749-4.869 0-4.869-.749-6.742 1.499-.749 2.996-5.618 4.495-6.368.749-10.488 4.869-14.983 5.618-24.721.374-.374.374-.749.749-.374V290l-.374.374c0-2.622.749-5.993 1.873-9.364-3.371 7.866-7.117 13.484-9.739 19.478v.374l-.749.749c-.749-5.244 6.367-13.484 4.495-13.859-3.371 4.869-5.618 16.106-7.117 17.604 0 1.123.749-.374 1.124-.374s.374.374.374 1.873c-2.247 6.368-2.622 5.244-4.495 8.99l.374 3.745c-1.873 0-3.371 6.742-4.869 13.859 2.996-7.866 5.993-16.106 8.615-25.47-1.124 12.735-6.368 23.223-8.99 35.583zm19.477-52.814l-.749 3.371c.374-1.498 1.123-3.371.749-3.371zm-1.124 4.495l.374-1.124c-.374 1.499-.749 2.247-.374 1.124zm-20.975 50.94c1.124-3.371 2.247-8.24 2.996-12.735-2.247 6.742-4.495 13.109-5.993 19.478 1.124-1.498 2.622-2.996 3.371-6.368-.374-.374-.374-.749-.374-.374zm2.996 4.495c0 1.123 0 1.873.374 1.873.749 0 2.247-3.745 2.622-7.117-1.124 4.495-2.622 6.368-2.996 5.244zm64.8 122.856c-.374-1.873 5.244-3.745 3.745-5.244l-2.247 1.873c.374-1.499-2.622-.374-2.247-1.873-2.247 1.124-4.12 1.873-6.367 2.622l-.374-1.499 1.498.374c.374-1.124.374-1.499 0-1.499-.749 0-2.622 1.499-4.12 1.499-.374 0-.749 0-1.124-.374l.374 1.124c-5.993 0-2.622-.749-7.491-1.124l-1.124 1.499c-.374.374 1.873-.749 3.371-.749.374 0 .749 0 .749.374-2.996 1.873-7.117 1.873-10.113 3.745l2.247-3.371c-.374.374-.374.749-.749.749-1.124 0-2.622-1.499-4.869-1.499h-.749l2.996.749c-1.124 1.124-2.247 1.499-4.12 1.499h-3.745c-1.124 0-2.247 0-3.371.374 1.124 0 1.873 0 2.247.749-.374.374-1.124.749-1.499.749-1.124 0-2.247-.749-2.996-1.124.749-2.996 8.24-1.124 7.491-3.745-3.371 0-6.368 2.247-8.99 2.247h-.749l2.247-1.873-1.873.749h.374c-.374.374-.374.749-.749.749-.749 0-1.873-1.124-2.622-1.124l1.124-1.499-2.622-.749.374.749c-4.12-.374-7.117-1.873-8.615-4.495.374.749.374 1.124.749 1.499-.374.374-.749 0-1.499-.749-.374 1.124 1.499 2.247 1.124 2.622-2.622-1.873-2.247-2.996-2.996-5.244-.749 0-.749 2.247-2.247 2.247 0 0-.374-.374-.749-.374 1.124-.749.749-2.622 2.622-2.622-1.873-.749.374-1.499-1.873-1.499 0 0 .374 0 .374.374-.749.749-1.499 0-1.873-.374.749-1.499 1.873-2.247 1.124-3.371l-1.499-2.622h.749c-.749-1.499-.749-3.371-.749-4.869.374-1.499.374-2.996 0-4.121-.374-.374-.749-.749-1.124-.749s-.374.374-.374 1.124c-1.498-1.873.749-3.745 1.873-5.244l1.124 1.873c.374-4.495 5.244-8.989 5.993-13.858l-1.499.374c1.124-4.495 5.618-7.491 5.993-10.113-.749.374-1.124.374-1.124.374-1.499 0 1.499-3.371 1.499-4.12-2.622 2.247-4.12 7.117-4.495 7.491h.374c-1.124 1.873-1.873 3.746-2.247 5.993l-1.124-1.124c2.622 2.622-5.618 6.742-1.873 7.117-.374 1.124-1.124 1.499-1.873 1.499-.374 0-.749-.374-1.124-.374 0 1.499-.374 2.996-.374 4.495-.749.374-2.247-1.124-2.247-1.499.749-1.873.749-5.244 2.996-6.368 0-.749-.374-.749-.749-.749-.749 0-1.499.374-.749-1.873 4.869-4.495 6.742-11.611 10.862-14.233-.749.374-1.123.374-1.498.374s-.374 0-.374-.749l2.996-1.499c1.124-2.247.374-4.495 2.247-5.244-.374-1.124-3.371 2.996-5.244 3.746-1.499-4.495 4.869-2.996 4.12-6.742 0-.374-.374-.374-.749-.374-.749 0-2.247 2.996-2.996 2.996-.374 0-.749 0-.749-.749.749-.749 1.499-1.873 2.622-2.622-4.12 0-2.996 5.618-5.993 4.495 0-1.873 2.996-4.495 3.745-4.495 0-.374-.374-.374-.749-.374-1.124 0-1.873 0-1.499-1.124 2.247-.749 1.499-2.996 3.371-3.371l.749 1.873c.749-1.124 3.745-3.746 4.869-5.244 1.499 1.124-.374 5.244-1.873 6.368 1.873-.374 3.371-2.622 4.12-3.746-.749.374-1.499.749-2.247 1.499 2.622-2.996-.374-4.495 3.371-7.491.749-.749 1.124-1.124 1.499-1.124.749 0 .749 1.499 1.873 1.499 1.123-1.873 1.498-2.247 1.123-2.247 0 0-.749.374-1.498-.374 2.247-2.622 3.371-2.247 6.367-5.618-1.499 2.247-1.124 3.371-3.371 4.869l1.873.749c1.873-3.371 2.247-6.368 4.495-10.113l1.124.749c0-.749 6.367-6.368 12.735-11.237s12.735-9.364 11.611-9.739c0 .374-4.869 2.622-9.364 5.618l-1.499 1.124v-.374c2.247-2.996 10.488-7.866 13.859-9.739 0 0-.374 0-.749.374-.749-2.247 1.873-1.873 1.124-3.745 5.618-2.996 7.866-4.121 14.234-4.121-1.873-.374-3.745-.374-5.618-.374-8.615 0-16.481 2.996-23.597 7.491-1.124 1.124-1.499 1.873.374 1.873.749-1.123 1.498-1.498 1.873-1.498.749 0 1.124.749.374 1.873-.374.374-.749.374-.749.374-.374 0-.374-.374-.749-.374l-1.123 1.123 1.873-.374c-2.622 1.873-3.745 3.371-4.12 5.993-11.611 5.244-17.979 17.979-27.718 22.848l-1.124 4.121c-.374 0-.749-.374-1.124-.374s-1.124.374-1.499 1.124c.749-.374 1.499-1.124 1.499-.749l-5.618 5.993h1.499c-2.622 1.124-3.745 6.368-7.117 7.117.374.374 0 2.247.749 2.622-6.368 5.244-8.615 14.608-13.484 19.477.749-.374 1.124.749 1.124 1.124-.374.749-.374 1.124-.749 1.124 0 0-.374-1.124-1.123-.749 2.247 1.499-2.247 9.364-3.371 19.102-.374 2.622 0 5.244 0 7.491s.749 4.869 1.123 6.742c.374 1.499 2.247 7.491 4.12 7.491 0-.374-.374-1.124 0-1.124 7.866 11.986 20.975 15.357 34.459 15.357-1.873-.374-1.873-1.124-1.873-2.247 0 .374-.374.374-.749.374-.749-.749-1.499-1.124-1.873-1.124-.749 0-1.499.749-2.247.749-.374 0-1.124-.374-1.873-1.124l2.247-1.124c-.749 0-1.873.374-2.996.374-3.745 0-8.24-1.124-11.986-3.371l1.123-1.499c-1.873 0-4.12-2.247-3.371-3.371 2.247 1.499 4.12 1.499 5.618 1.499.749 0 1.124-.374 1.499-.374 1.123 0 1.498.374 2.622 1.499-.749.374-.374 0-.374.749 1.124-.374 2.622-1.124 4.12-1.124 1.123 0 1.873.374 2.996.749l-1.499 1.124c4.495 1.124 8.615 1.124 13.109 1.124-1.124-.749 0-1.873 1.873-1.873 2.622.374-.749.749.374 1.499.374.374 1.124.749 1.873.749 2.247 0 5.244-1.873 6.742-2.247-.749.749 5.618.749 1.873 2.247 3.371 0 5.993-2.247 8.615-2.247.749 0 1.499.374 2.247.749 0-.749 1.124-2.247 2.247-2.996l.374 1.873 1.124-1.499c2.247-.374 4.12 1.124 5.618 1.124.749 0 1.498 0 2.247-.749-.749.374-1.873.749-1.873 0zm-70.793-97.386l-.749 1.498c0-3.371 2.622-11.611 3.371-11.611l-1.124-1.498c.374-2.996.749-4.12 1.499-4.12s1.873 2.996 2.996 2.996c.749 0 1.499-1.123 2.247-4.869-.749 1.873-1.499 2.622-1.873 2.622-1.498 0-1.873-4.12-.749-7.117-.749.749-3.745 0-4.12 2.622l-3.371 6.742c2.996.749-.749 11.986-2.247 15.731v-.374c0-1.498 0-1.498-.374-.749-.749-2.247-1.124-5.993 1.124-9.739.749-5.244 1.873-10.488 3.371-15.357-1.873 2.247-4.12 3.745-5.244 10.113.374-1.498.749-1.873.749-1.873.374 0 .374 2.622.374 2.622.374 0 .374-.374.749-1.498 0 5.618-4.495 11.986-5.618 20.975.374-.749.374-.749.749-.749 0 0 .374.749.374 1.873-1.873 6.368-3.371 16.856-4.495 23.597.374-.374.374-.374.749 0-1.498 5.618-1.873 7.117-4.12 13.109-6.742 23.597-8.615 56.933-12.361 77.909-.374 1.499-.749 1.873-.749 1.873-1.124 0-.749-8.24-1.499-5.993.374 4.869 3.745 28.466 11.611 28.466 1.124 0 1.873-.374 2.622-1.124l-1.124-2.996c.374 0 1.873-.749 1.124-4.12-.374-2.247-.749-2.996-.749-2.996-.749 0-1.124 2.247-1.499 2.247 0 0-.374 0-.374-.749 3.371-8.24-2.622-25.096 3.371-32.961 2.247-34.085 8.24-74.537 15.357-104.502zm-4.495-11.986l-.374.749c.374-.374.374-.374.374-.749zm7.117 1.872l.374.374c0-.374 0-.374-.374-.374zm46.071 4.87l-.374.374zm-1.124.75c0 .374-.374.374-.374.749-.374 0 0-.374.374-.749zm-56.558 11.61v1.124zm40.452 10.488l.374-.374s-.374 0-.374.374zm0 0c-1.123.374-3.371 1.124-2.247 2.622.749-.374 1.124-1.499 2.247-2.622zm2.248 6.742l.374.749c.374-.749 0-.749-.374-.749zm.374.749v.749c0-.374.374-.374.374-.749zm-3.371 3.746l1.873-1.873c.749.749 1.123 1.124 0 2.247.749 0 1.123-1.499 1.498-2.247l-.374.374c0-.374 0-1.124.374-1.499-1.873 1.499-5.244.374-3.371 2.996zm-46.071 4.869c.374-.749.749-2.622 1.124-5.244-.374.374-1.124 1.873-1.124 5.244zm44.947-4.494l-.374 2.996c.749-.749 1.873-2.622.374-2.996zm-3.371 1.497c-.374.374-.749.749-.749 1.124 1.499-.374-.374 1.499-.374 2.247 2.622-1.873.374-1.873 1.124-3.371zm166.68.75l-.374 1.124c0-.374-.374-.374-1.124-.374-.374 0-.749 0-1.123.749-.374 1.124 0 1.499.374 1.499.749 0 1.499-.374 1.124.749-4.495-.374-4.12 7.866-8.99 7.866h-1.123c-8.99 10.113-21.725 20.601-32.213 25.845H976c-1.124 1.499-4.12 2.247-4.869 1.873l.749 1.499c-.374.374-.749.749-1.123.749-1.499 0-.749-4.495-2.622-4.495-.374 0-.749.374-1.499.749 2.622-.374 2.247 2.996.374 3.746.749.374 2.247 2.622 2.996 2.247h3.371c-1.499-2.622 3.371-3.745 4.869-4.12v.374c0 1.873-.749 3.371-2.996 3.371-1.498 1.124-3.371 2.247-5.244 2.996 1.124.374 2.247 1.124 3.371 1.124.374 0 1.124-.374 1.873-.749-2.247.749.749-1.873-1.123-1.499 1.123-2.247 5.244-.374 7.866-3.371-.374.374-.749-.749-.374-1.499 2.622-.749 5.993-3.371 8.24-4.869l-.749-.749c2.247-.749 2.996-1.124 5.618-1.873 10.113-2.996 17.979-14.608 26.219-19.103 2.996-.749-.749 3.371.749 2.996 4.12-10.113 1.499-14.983-2.996-16.856zm-172.298 5.618h-.374c0 .374 0 .374-.374.749zm145.704 31.463c-.374 0-1.124.374-1.873.749.374.374 1.123.374 1.873-.749zm-28.841 4.87c.749-.374 1.124-.374 1.499-.374.749 0 1.499.374 1.499.749.374-.749 0-1.124-.749-1.124s-1.498.374-2.247.749zm1.498 3.371c.374-.749.374-1.124 0-1.124-.749 0-2.622 1.499-2.996 1.124-.374-1.124 0-1.499.749-1.499h.749c.749 0 1.124 0 1.124-1.124-.374-.374-.749-.749-1.499-.749-1.499 0-4.869 1.499-6.742 1.499-1.499 1.124-1.124 1.499-1.124 2.622-.374-.374-1.124-.374-1.873-.374-.374 0-1.124 0-1.873-.374-2.622 2.996-5.618 1.499-8.615 3.746.749-.374 1.873-.749 1.124-.374l-1.499.749-.374.374h.374c-.749 1.124-1.873 1.499-3.371 2.247.749 0 1.499-.374 2.247-.374 2.622 0 4.869.749 6.742.749.374 0 .749 0 1.499.374 0 .374 0 .374-.374.374h1.123c.749 0 1.124 0 1.499.374.374-.749-1.499-.749-.374-1.873.749-.374 1.499-.374 1.873-.374.749 0 1.499.374 2.622.749l.749-1.873c.374.374.749.749 1.124.749 1.124 0 2.622-1.124 4.495-2.247-3.371.749-7.117 1.499-10.488 2.622 3.371-3.745 8.99-3.371 13.109-5.993zm1.873 1.124c-1.499.374-2.996 1.124-4.495 2.247 2.622-.374 5.618-1.124 7.866-2.247-.749-.374-1.499-.374-2.247-.374-.374 0-.749 0-1.124.374zm-24.347 2.996l.374-.374c-.374 0-.374.374-.374.374zm-10.487 3.745l-1.124-1.124c-3.371.749-.749 1.499-1.499 2.622zm7.116-1.123c-.749 0-1.873.374-2.622.749.749-.374 1.873-.374 2.622-.749zm-2.996.749h-1.873c1.124.374 1.499 1.124.374 1.873l-1.873-1.124-2.622 3.746c1.873-2.622 6.368-.749 5.618-3.746l1.873.374zm12.735.749s.374 0 .374-.374c0 .374-.374.374-.374.374zm-4.495 0c-.374 0-.374.374-.374.749h1.124c.749 0 1.873 0 2.622-.374-1.124.374-2.622-.374-3.371-.374zm4.495 0c-.374.374-1.123.374-1.123.374.374 0 .749 0 1.123-.374zm-25.844 1.124v-.749c-.374.374-.374.374 0 .749zm-.75 3.371c.374-1.873 3.371-1.499 2.996-2.996 0-.374-1.873-.374-2.247-.374.374 2.622-3.371 1.124-1.124 4.121 1.124-.374 1.873-.749 2.996-1.499zm7.117-3.371l-1.873.749c1.124-.374 1.873-.374 1.873-.749zm7.491 3.371h-1.124c0 1.124-1.124 1.499-.374 2.247-1.498 0-1.498-.749-2.622-1.124-1.498 2.247-4.869 2.622-5.993 4.12.749-.374.749-.374 1.499-.374 2.622-.374 5.618-2.622 8.615-2.622.749 0 1.123 0 1.873.374-1.124-1.124-.374-2.622-1.873-2.622zm-29.215 1.872c1.123 0 2.247-.749 3.371-1.499-1.124.374-2.996 1.124-4.12 1.499zm8.989-1.123l-.749 1.873c1.873-1.124 2.996-1.124 4.12-1.499-.374-.374-.749-.749-1.499-.749-.374 0-1.123 0-1.873.374zm5.243 0c-.749 0-1.124.374-1.873.374.374 0 1.124 0 1.873-.374zm-21.724 5.993c2.247-1.873 7.866-1.499 6.368-4.495-1.499.374-2.622.749-2.622 1.499v-.749s-2.247 1.873-3.745 3.745zm9.739-3.746c.374-.374.749-.374.749-.374h-.374c-1.499.749-3.745 1.873-3.745 2.247.374.374 1.873-.749 2.622-.749.374 0 .374 0 .749.374 2.996-.749-1.124-1.124 0-1.499zm13.858 2.622c-.749 0-1.124.374-1.124 1.499.749-.374 1.499-.374 2.622-.374.749 0 1.873 0 2.622-.749l.374-1.124c-.749.749-1.873 1.124-2.622 1.124s-1.498-.374-1.873-.374zm-15.357 2.997c-.374.374-.374 3.371-2.996 4.12 1.499.374 1.499-.749 3.371-.749l1.124-2.622-1.124.749zm5.244 1.123l2.996-.749-4.12.749zm-13.109 2.997h-1.498c-.374 0-.749 0-1.124-.374-.374.749-1.123 1.499 0 1.873 2.622-.374 7.117-1.499 7.117-3.745h-1.499c-1.873 0-1.873 1.124-2.996 2.247zm-5.618-1.124c-4.12 1.499-7.117 1.499-10.862 1.499.749.374 1.124.374 1.499.374h1.499c-2.247.374-5.618 2.247-8.615 2.622.749.749 1.124.749 1.873.749 1.124 0 2.247-.374 3.745-.374-1.124-.374-1.499-.749-.374-1.124.374.374 1.124.374 1.499.374 1.873 0 2.996-1.124 4.495-1.124h1.124l-2.247 1.124c0 .374.374.374.749.374.749 0 2.622-1.124 3.745-1.124.374 0 .749.374 1.124 1.124 2.996-2.996-3.371-2.247.749-4.495zm2.996.749v-.749c-.374.374 0 .374 0 .749zm-14.233 0c-2.247.749-4.869 1.124-7.491 1.873l3.371.374c1.498-.749 2.996-1.499 4.12-2.247zm-26.969 2.248c-1.499.374.374 1.124.374 1.499 0-.749.374-1.124-.374-1.499zm3.371 0c-.374 0-.749.374-1.123.374 3.745 2.247-1.124 1.124 1.498 3.371 1.873-.374 3.745-.374 5.618-.749-3.745.374-4.12-2.996-5.993-2.996zm6.368 0h-2.247c.749.374 1.873.749 2.996.749-.374 1.499 2.247 1.873 2.247 3.371 0-1.124 1.124-1.499 2.247-1.499h4.495l.749-2.247c-.749-.374-1.873-.374-3.371-.374z"/>
</svg>